<?xml version="1.0" standalone="no"?>
<!DOCTYPE svg PUBLIC "-//W3C//DTD SVG 20010904//EN"
 "http://www.w3.org/TR/2001/REC-SVG-20010904/DTD/svg10.dtd">
<svg version="1.0" xmlns="http://www.w3.org/2000/svg"
 width="864.000000pt" height="864.000000pt" viewBox="0 0 864.000000 864.000000"
 preserveAspectRatio="xMidYMid meet">
<metadata>
Created by potrace 1.14, written by Peter Selinger 2001-2017
</metadata>
<g transform="translate(0.000000,864.000000) scale(0.100000,-0.100000)"
fill="#000000" stroke="none">
<path d="M351 7443 c23 -43 55 -100 70 -128 15 -27 44 -79 63 -115 20 -36 55
-99 77 -140 22 -41 60 -111 84 -155 24 -44 53 -96 63 -115 37 -68 85 -156 107
-195 13 -22 34 -60 47 -85 14 -25 38 -70 55 -100 16 -30 46 -84 65 -120 19
-36 58 -106 86 -157 28 -51 70 -127 93 -170 23 -43 45 -82 49 -88 6 -9 85
-154 129 -239 9 -17 18 -33 21 -36 3 -3 11 -16 17 -30 7 -14 30 -56 51 -95 21
-38 56 -101 77 -140 20 -38 45 -83 55 -100 10 -16 33 -59 52 -95 20 -36 47
-85 60 -110 73 -131 94 -169 117 -215 14 -27 29 -52 32 -55 4 -3 9 -15 13 -27
4 -13 12 -23 17 -23 5 0 9 -7 9 -15 0 -9 10 -32 23 -53 13 -20 39 -66 58 -102
18 -36 36 -67 39 -70 3 -3 19 -32 36 -65 40 -78 90 -168 122 -225 35 -59 98
-176 120 -220 9 -19 19 -37 22 -40 3 -3 14 -23 26 -45 20 -40 20 -46 19 -1300
-1 -693 0 -1265 2 -1271 3 -7 119 -10 366 -10 l362 1 0 1275 1 1275 38 65 c20
36 45 79 54 95 9 17 20 32 25 33 4 2 7 7 7 11 0 5 23 48 52 97 28 49 56 98 62
109 6 11 18 31 27 45 44 69 199 342 199 351 0 5 5 9 10 9 6 0 10 4 10 9 0 7
57 108 117 206 7 11 17 32 24 48 6 15 15 27 20 27 5 0 9 5 9 10 0 6 11 27 23
48 20 31 54 91 101 177 6 11 13 22 16 25 3 3 42 67 85 144 44 76 90 155 102
175 13 20 26 43 30 51 5 8 27 47 51 87 23 39 42 74 42 77 0 6 50 86 60 96 3 3
14 23 26 45 12 22 63 112 114 200 51 88 108 185 125 215 18 30 72 123 120 205
49 83 94 161 102 175 8 14 25 43 38 65 14 22 32 56 42 75 9 19 20 37 23 40 4
3 21 30 38 60 43 76 119 209 141 245 18 30 115 197 142 245 8 14 16 27 19 30
3 3 12 19 20 35 8 17 16 33 18 38 2 4 -165 7 -370 7 l-374 0 -17 -32 c-32 -64
-169 -297 -198 -340 -11 -15 -19 -32 -19 -37 0 -5 -6 -16 -13 -23 -6 -7 -21
-31 -32 -53 -11 -22 -22 -42 -25 -45 -3 -3 -65 -106 -136 -230 -72 -124 -192
-330 -267 -458 -76 -129 -137 -238 -137 -243 0 -5 -4 -9 -8 -9 -5 0 -19 -22
-32 -50 -13 -27 -26 -50 -30 -50 -3 0 -11 -12 -17 -27 -7 -16 -39 -73 -72
-128 -34 -55 -66 -111 -73 -125 -7 -14 -15 -27 -18 -30 -3 -3 -10 -14 -16 -25
-6 -11 -37 -65 -69 -120 -32 -55 -72 -125 -90 -155 -17 -30 -77 -133 -133
-228 -56 -96 -102 -178 -102 -183 0 -5 -4 -9 -10 -9 -5 0 -10 -6 -10 -14 0 -7
-7 -19 -15 -26 -8 -7 -13 -16 -10 -20 3 -5 1 -10 -3 -12 -5 -1 -28 -37 -51
-78 -23 -41 -51 -88 -62 -105 -10 -16 -24 -42 -30 -57 -14 -36 -25 -35 -45 5
-9 17 -23 40 -32 50 -8 9 -11 17 -7 17 4 0 1 8 -7 18 -9 9 -28 40 -43 67 -15
28 -41 73 -57 100 -16 28 -34 61 -41 75 -6 14 -14 27 -17 30 -3 3 -10 14 -16
25 -39 72 -110 196 -134 235 -24 38 -100 172 -100 176 0 2 -18 33 -40 69 -22
36 -40 70 -40 75 0 6 -4 10 -10 10 -5 0 -10 5 -10 11 0 6 -17 41 -39 77 -41
72 -69 120 -109 192 -13 25 -31 52 -38 61 -8 8 -14 19 -14 23 0 4 -22 44 -48
89 -27 45 -52 89 -56 97 -4 8 -12 24 -19 35 -7 11 -30 52 -52 90 -21 39 -43
73 -48 76 -5 3 -7 8 -6 10 2 2 -14 32 -34 67 -20 35 -37 67 -37 73 0 5 -4 9
-10 9 -5 0 -10 4 -10 9 0 5 -17 38 -37 73 -20 34 -45 79 -55 98 -11 19 -28 49
-39 65 -10 17 -22 37 -26 45 -4 8 -37 68 -75 132 -37 64 -68 119 -68 122 0 3
-16 30 -35 60 -19 30 -35 59 -35 65 0 5 -6 16 -13 23 -7 7 -27 38 -44 69 -17
31 -58 104 -92 162 -34 58 -61 111 -61 116 0 8 -118 11 -371 11 l-371 0 43
-77z"/>
<path d="M6510 6673 c-1 -38 -2 -279 -3 -538 l-2 -470 -390 -2 -390 -1 -2 -34
c-3 -45 -4 -143 -2 -154 1 -5 0 -13 -1 -19 -1 -5 -1 -28 -1 -50 1 -22 1 -56 0
-75 -1 -54 -1 -73 1 -100 1 -14 1 -64 -1 -111 -1 -48 1 -90 4 -95 3 -5 181 -9
395 -9 l391 1 1 -1476 c0 -811 2 -1486 4 -1500 8 -54 69 -227 85 -240 3 -3 15
-21 25 -40 54 -97 167 -217 271 -286 131 -88 270 -139 455 -170 19 -3 317 -7
663 -8 l627 -3 -2 296 -3 296 -580 1 c-404 1 -595 5 -628 13 -83 20 -171 66
-224 117 -81 80 -113 152 -118 267 -1 32 -5 60 -8 63 -3 3 -2 16 2 28 6 18 7
80 1 96 -1 3 -1 10 0 15 5 24 3 496 -3 501 -3 3 -2 16 2 28 6 18 7 80 1 96 -1
3 -1 10 0 15 5 22 2 1097 -3 1102 -3 3 -2 15 2 27 8 24 7 83 -2 92 -3 3 -2 16
2 28 8 24 7 83 -2 92 -3 3 -2 16 2 28 8 24 7 83 -2 92 -3 3 -2 16 2 28 6 18 7
80 1 96 -1 3 -1 10 0 15 1 6 2 73 2 151 l1 140 634 0 c349 -1 639 2 644 5 5 3
8 138 7 323 l-3 318 -640 2 -640 1 -2 510 c-1 281 -2 522 -3 538 l0 27 -285 0
-285 0 0 -67z"/>
</g>
</svg>
