<svg xmlns="http://www.w3.org/2000/svg" width="19" height="19" fill="none"><path fill="#fff" d="M13.4.687H5.213A4.839 4.839 0 0 0 .38 5.52v8.189a4.839 4.839 0 0 0 4.833 4.833h8.19a4.839 4.839 0 0 0 4.832-4.833v-8.19A4.839 4.839 0 0 0 13.401.688Zm-4.093 13.81a4.888 4.888 0 0 1-4.883-4.883 4.888 4.888 0 0 1 4.883-4.882 4.888 4.888 0 0 1 4.882 4.882 4.888 4.888 0 0 1-4.882 4.882Zm4.998-8.614a1.444 1.444 0 0 1-1.442-1.442c0-.796.647-1.443 1.442-1.443.796 0 1.443.647 1.443 1.443 0 .795-.647 1.442-1.443 1.442Z"/><path fill="#fff" d="M9.307 5.779A3.84 3.84 0 0 0 5.47 9.614a3.84 3.84 0 0 0 3.836 3.836 3.84 3.84 0 0 0 3.835-3.836A3.84 3.84 0 0 0 9.307 5.78ZM14.306 4.045a.396.396 0 1 0 0 .793.396.396 0 0 0 0-.793Z"/></svg>