<svg xmlns="http://www.w3.org/2000/svg" width="2009" height="2009" fill="none"><g filter="url(#a)"><circle cx="874.5" cy="934.5" r="852.5" fill="#fff" fill-opacity=".5"/></g><g filter="url(#b)"><circle cx="874.499" cy="934.5" r="618.088" fill="#fff" fill-opacity=".3"/><circle cx="874.499" cy="934.5" r="618.088" fill="url(#c)"/><circle cx="874.499" cy="934.5" r="617.088" stroke="url(#d)" stroke-width="2"/></g><g filter="url(#e)"><circle cx="874.5" cy="934.5" r="453.798" fill="#fff" fill-opacity=".3"/><circle cx="874.5" cy="934.5" r="453.798" fill="url(#f)"/><circle cx="874.5" cy="934.5" r="452.798" stroke="url(#g)" stroke-width="2"/></g><g filter="url(#h)"><circle cx="874.499" cy="934.5" r="313.552" fill="#fff" fill-opacity=".3"/><circle cx="874.499" cy="934.5" r="313.552" fill="url(#i)"/><circle cx="874.499" cy="934.5" r="312.552" stroke="url(#j)" stroke-width="2"/></g><g filter="url(#k)"><circle cx="874.5" cy="934.5" r="199.692" fill="#fff" fill-opacity=".3"/><circle cx="874.5" cy="934.5" r="199.692" fill="url(#l)"/><circle cx="874.5" cy="934.5" r="198.692" stroke="url(#m)" stroke-width="2"/></g><path fill="#38BFF2" stroke="#263238" stroke-linecap="round" stroke-linejoin="round" d="M1019.07 925.121H750.526v113.129h268.544V925.121Z"/><path fill="#fff" stroke="#263238" stroke-miterlimit="10" d="M781.4 931.968h-25.262v13.985H781.4v-13.985ZM1012.85 1000.16h-39.79v13.98h39.79v-13.98ZM1012.86 949.435h-24.561v13.984h24.561v-13.984ZM781.4 982.912h-25.262v13.985H781.4v-13.985ZM776.592 966.063h-20.454v13.984h20.454v-13.984ZM770.12 949.016h-13.982V963h13.982v-13.984ZM787.978 949.016h-13.982V963h13.982v-13.984ZM805.825 949.016h-13.982V963h13.982v-13.984ZM823.672 949.016H809.69V963h13.982v-13.984ZM841.531 949.016h-13.982V963h13.982v-13.984ZM859.377 949.016h-13.981V963h13.981v-13.984ZM877.224 949.016h-13.982V963h13.982v-13.984ZM895.083 949.016h-13.982V963h13.982v-13.984ZM912.93 949.016h-13.982V963h13.982v-13.984ZM930.788 949.016h-13.981V963h13.981v-13.984ZM948.635 949.016h-13.982V963h13.982v-13.984ZM966.482 949.016H952.5V963h13.982v-13.984ZM984.34 949.016h-13.982V963h13.982v-13.984ZM770.12 1017.4h-13.982v13.99h13.982v-13.99ZM787.978 1017.4h-13.982v13.99h13.982v-13.99ZM805.825 1017.4h-13.982v13.99h13.982v-13.99ZM826.757 1017.4H809.69v13.99h17.067v-13.99ZM916.015 1017.4h-85.393v13.99h85.393v-13.99ZM976.552 1017.4H962.57v13.99h13.982v-13.99ZM994.434 1017.4h-13.982v13.99h13.982v-13.99ZM941.219 1017.4h-21.712v13.99h21.712v-13.99ZM1012.85 1017.4h-13.98v13.99h13.98v-13.99ZM794.544 966.063h-13.982v13.984h13.982v-13.984ZM812.391 966.063h-13.982v13.984h13.982v-13.984ZM830.249 966.063h-13.981v13.984h13.981v-13.984ZM848.096 966.063h-13.982v13.984h13.982v-13.984ZM865.955 966.063h-13.981v13.984h13.981v-13.984ZM883.802 966.063H869.82v13.984h13.982v-13.984ZM901.649 966.063h-13.982v13.984h13.982v-13.984ZM919.507 966.063h-13.982v13.984h13.982v-13.984ZM937.354 966.063h-13.982v13.984h13.982v-13.984ZM955.202 966.063H941.22v13.984h13.982v-13.984ZM973.06 966.063h-13.982v13.984h13.982v-13.984ZM990.907 966.063h-13.982v13.984h13.982v-13.984ZM1012.85 966.063v31.043h-13.981v-17.059h-4.098v-13.984h18.079ZM798.642 983.11H784.66v13.985h13.982V983.11ZM816.489 983.11h-13.982v13.985h13.982V983.11ZM834.336 983.11h-13.982v13.985h13.982V983.11ZM852.195 983.11h-13.982v13.985h13.982V983.11ZM870.041 983.11H856.06v13.985h13.981V983.11ZM887.9 983.11h-13.982v13.985H887.9V983.11ZM905.746 983.11h-13.981v13.985h13.981V983.11ZM923.594 983.11h-13.982v13.985h13.982V983.11ZM941.453 983.11h-13.982v13.985h13.982V983.11ZM959.299 983.11h-13.982v13.985h13.982V983.11ZM977.146 983.11h-13.982v13.985h13.982V983.11ZM995.004 983.11h-13.982v13.985h13.982V983.11ZM791.052 1000.16H777.07v13.98h13.982v-13.98ZM808.898 1000.16h-13.981v13.98h13.981v-13.98ZM826.757 1000.16h-13.982v13.98h13.982v-13.98ZM844.604 1000.16h-13.982v13.98h13.982v-13.98ZM862.462 1000.16H848.48v13.98h13.982v-13.98ZM880.309 1000.16h-13.982v13.98h13.982v-13.98ZM898.157 1000.16h-13.982v13.98h13.982v-13.98ZM916.015 1000.16h-13.982v13.98h13.982v-13.98ZM933.862 1000.16H919.88v13.98h13.982v-13.98ZM951.708 1000.16h-13.981v13.98h13.981v-13.98ZM969.567 1000.16h-13.982v13.98h13.982v-13.98ZM798.642 932.807H784.66v13.984h13.982v-13.984ZM816.489 932.807h-13.982v13.984h13.982v-13.984ZM834.336 932.807h-13.982v13.984h13.982v-13.984ZM852.195 932.807h-13.982v13.984h13.982v-13.984ZM870.041 932.807H856.06v13.984h13.981v-13.984ZM887.9 932.807h-13.982v13.984H887.9v-13.984ZM905.746 932.807h-13.981v13.984h13.981v-13.984ZM923.594 932.807h-13.982v13.984h13.982v-13.984ZM941.453 932.807h-13.982v13.984h13.982v-13.984ZM959.299 932.807h-13.982v13.984h13.982v-13.984ZM977.146 932.807h-13.982v13.984h13.982v-13.984ZM995.004 932.807h-13.982v13.984h13.982v-13.984ZM1012.85 932.807h-13.98v13.984h13.98v-13.984ZM773.077 1000.16h-16.939v13.98h16.939v-13.98Z"/><path fill="#263238" d="m750.526 925.843 5.612-1.874h259.282l3.69 1.851-268.584.023Z"/><path fill="#fff" d="m985.68 1059.87.139-51.48c.559-2.07 1.013-9.712 2.201-15.033 2.025-8.92-5.938-19.679-6.497-20.028-2.235-1.398-6.985-1.374-6.985-1.374s-4.656-5.31-8.813-6.987a20.79 20.79 0 0 0-8.917-1.106 42.607 42.607 0 0 0-10.594-6.416 8.715 8.715 0 0 0-8.918 1.677l-5.239 8.151a6.081 6.081 0 0 0 .711 7.592c2.491 2.445 5.681 1.304 7.287 1.304 2.224 0 3.062-2.515 3.062-2.515s.547 13.099 0 14.776c-.57 1.665-4.738 5.566-4.738 5.566l-13.97-18.433a133.904 133.904 0 0 1-12.539-20.703 10.162 10.162 0 0 0-1.571-2.445c-2.445-2.76-7.672-3.575-9.034 1.548a10.132 10.132 0 0 0 .221 4.937c5.821 17.211 13.248 30.217 20.012 43.769 4.017 8.05 2.527 7.96 4.529 11.59-.233.16-.117.46-.373.62-.978 3.91-1.664 7.83-2.654 11.74a53.618 53.618 0 0 0-4.459-14.18c.565-2.72.772-5.51.617-8.29a10.92 10.92 0 0 0-3.492-7.347 7.186 7.186 0 0 0-4.063-1.583 4.236 4.236 0 0 0-4.471 3.621 43.4 43.4 0 0 1-1.164 6.309 62.524 62.524 0 0 1-3.213 7.91c0 5.2 3.213 4.35 5.553 25.24 1.816 16.31 22.771 27.03 34.18 38.78L956 1117c17-8 24-12 38.5-23l-8.82-34.13Z"/><path fill="#92E3A9" d="M915.956 1031.69c.14-.26.256-.51.373-.78a.881.881 0 0 0-.373.78ZM949.519 959.658a11.472 11.472 0 0 0-5.506-2.328l5.506 2.328ZM943.314 965.108l.07.582a.913.913 0 0 0-.07-.582Z"/><g fill="#fff" opacity=".5"><path d="M915.956 1031.69c.14-.26.256-.51.373-.78a.881.881 0 0 0-.373.78ZM949.519 959.658a11.472 11.472 0 0 0-5.506-2.328l5.506 2.328ZM943.314 965.108l.07.582a.92.92 0 0 0-.07-.582ZM949.729 1015.61c-.524-1.31-3.062-5.05-4.541-2.46l4.541 2.46Z" opacity=".5"/></g><path fill="#fff" d="M906.445 1009.34a14.718 14.718 0 0 0-3.411 3.84l3.411-3.84Z"/><path stroke="#263238" stroke-miterlimit="10" d="m956 1117-13.395-39.96c-11.409-11.75-32.365-22.49-34.181-38.77-2.328-20.89-5.553-20.04-5.553-25.25 1.25-2.56 2.323-5.2 3.213-7.9.543-2.07.932-4.18 1.164-6.314a4.24 4.24 0 0 1 4.471-3.621 7.177 7.177 0 0 1 4.063 1.584 10.922 10.922 0 0 1 3.492 7.351c.155 2.77-.052 5.56-.617 8.29a53.467 53.467 0 0 1 4.459 14.18c.99-3.91 1.677-7.84 2.655-11.75.256-.15.139-.45.372-.62-2.002-3.63-.512-3.49-4.529-11.58-6.763-13.557-14.179-26.563-20.012-43.773a10.136 10.136 0 0 1-.221-4.938c1.362-5.123 6.589-4.308 9.034-1.548a10.196 10.196 0 0 1 1.572 2.445 133.85 133.85 0 0 0 12.538 20.703l13.97 18.433s4.168-3.901 4.738-5.566c.547-1.676 0-14.776 0-14.776s-.838 2.515-3.061 2.515c-1.607 0-4.797 1.164-7.288-1.304a6.078 6.078 0 0 1-.827-7.557l5.204-8.151a8.713 8.713 0 0 1 8.918-1.677 42.607 42.607 0 0 1 10.594 6.416 20.79 20.79 0 0 1 8.917 1.106c4.191 1.689 8.813 6.987 8.813 6.987s4.738 0 6.985 1.374c.559.349 8.522 11.108 6.496 20.028-1.164 5.321-1.641 12.963-2.2 15.033l-.14 51.48L995 1094"/><path stroke="#263238" stroke-miterlimit="10" d="M958.088 965.678a91.696 91.696 0 0 1 3.167 23.289 12.59 12.59 0 0 0 .419 3.912 3.85 3.85 0 0 0 2.666 2.655M974.55 973.329c3.493 7.289-.081 23.568.175 24.72.11.58.342 1.129.681 1.611.34.48.778.89 1.286 1.18M944.537 964.677c-.407 2.329-.745 5.007-1.164 7.324a13.479 13.479 0 0 1-4.657-9.315M922.231 1026.81l-2.514 1.11M922.872 1028.83a14.534 14.534 0 0 0 0 5.89M937.587 1007.06l2.782 5.02M942.942 988.699l2.771-3.912M981.908 1007.06l-.839 3.08"/><path stroke="#263238" stroke-miterlimit="10" d="M975.132 998.713a277.5 277.5 0 0 1 2.456-7.825M983.281 984.798a3.142 3.142 0 0 1 4.238 1.316M966.599 971.431a5.991 5.991 0 0 1 5.599 1.281M914.746 979.197a8.509 8.509 0 0 1 7.218-2.724M904.233 957.236a7.814 7.814 0 0 1 5.821-1.374M906.445 1009.34a14.718 14.718 0 0 0-3.411 3.84M907.517 1004.05c1.839-1.31 4.773 1.63 6.461.12.299-.33.508-.74.608-1.18.099-.44.087-.9-.038-1.33a8.82 8.82 0 0 1-.337-2.667M959.427 995.977a21.07 21.07 0 0 1 1.28 14.923M972.955 1003.16a9.647 9.647 0 0 1-1.164 6.39"/><path fill="#fff" d="M855.949 1002.51c-.501-2.33-3.772-1.97-3.772-1.97-11.002.64-12.48 17.89-12.48 17.89l-3.947 11.81-1.164-17.77.116-22.899s3.33-21.915 1.851-25.35a5.014 5.014 0 0 0-4.552-3.33c-6.403-1.607-6.775 7.627-6.775 7.627l-5.402 18.84-2.282 20.322-1.839-.99s-.873-21.556-.501-21.917c.373-.361 2.585-14.905 2.585-14.905s1.164-2.701 2.712-6.148a7.467 7.467 0 0 0 0-6.16c-2.596-5.298-7.998-2.829-9.115 0a81.861 81.861 0 0 1-4.424 8.373l-6.17 16.872c.232 3.82-1.956 22.645-1.956 22.645l-2.224-1-3.574-11.06 2.724-11.33s5.949-6.521 4.913-10.363c-1.036-3.843-6.03-2.702-6.03-2.702l-10.082 12.052h-2.969l-6.985 8.873a56.224 56.224 0 0 0-1.641 29.52l1.606 7.49v48.4s-4.785 7.76-4.785 8.49c0 .34-4.528 8.55-7.287 16.18 12.022 7.86 25 14.5 40.5 21 4.412-12.42 11.934-29.4 14.787-32.5 5.658-6.16 16.741-17.98 16.741-17.98s12.584-20.22 14.063-26.96c1.164-5.51 4.168-15.53 5.192-18.96.238-.78.333-1.6.28-2.41-.082-1.82-.256-5.35-.256-8.46 0-4.49 2.619-8.93 2.142-11.22Z"/><path stroke="#263238" stroke-miterlimit="10" d="M762.5 1100c3.5-8 8.411-19.16 8.411-19.5 0-.73 4.785-8.49 4.785-8.49v-48.39l-1.607-7.44a56.216 56.216 0 0 1 1.607-29.449l6.985-8.873h2.969l10.081-12.051s5.053-1.165 6.031 2.701c.978 3.866-4.913 10.34-4.913 10.34l-2.724 11.33 3.574 11.062 2.223 1s2.189-18.827 1.956-22.647l6.17-16.872a81.95 81.95 0 0 0 4.424-8.372c1.164-2.83 6.52-5.299 9.116 0a7.479 7.479 0 0 1 0 6.159 261.72 261.72 0 0 1-2.713 6.149s-2.212 14.532-2.584 14.904c-.373.373.5 21.919.5 21.919l1.84.99 2.223-20.324 5.402-18.84s.373-9.234 6.776-7.627a5.017 5.017 0 0 1 4.552 3.33c1.478 3.435-1.851 25.35-1.851 25.35l-.117 22.901 1.164 17.77 3.947-11.82s1.478-17.242 12.48-17.882c0 0 3.271-.338 3.772 1.967.501 2.305-2.142 6.735-2.142 11.165 0 3.11.174 6.64.256 8.46.053.81-.042 1.63-.279 2.41-1.025 3.43-3.97 13.45-5.193 18.96-1.478 6.74-14.063 26.96-14.063 26.96s-11.083 11.82-16.741 17.98c-2.852 3.1-11.405 23.35-15.817 35.77"/><path fill="#fff" d="M799.76 1004.02c.309 1.16.318 2.38.027 3.54a7.025 7.025 0 0 1-1.692 3.1"/><path stroke="#263238" stroke-miterlimit="10" d="M799.76 1004.02c.309 1.16.318 2.38.027 3.54a7.025 7.025 0 0 1-1.692 3.1"/><path fill="#fff" d="M780.981 1020.3c1.595-2.48 3.155-5.88 2.725-8.79-.839-5.72-3.493-12.296-2.271-17.955.746-3.61 1.502-7.231 2.247-10.841"/><path stroke="#263238" stroke-miterlimit="10" d="M780.981 1020.3c1.595-2.48 3.155-5.88 2.725-8.79-.839-5.72-3.493-12.296-2.271-17.955.746-3.61 1.502-7.231 2.247-10.841M827.397 966.296a11.416 11.416 0 0 1 5.821 0v-1.619M812.146 959.018a3.708 3.708 0 0 0 3.857.218 3.711 3.711 0 0 0 1.964-3.327M854.185 999.447a7.114 7.114 0 0 0-3.999 2.723 7.134 7.134 0 0 0-1.345 4.65l2.853.85"/><path fill="#fff" d="M816.722 1000.87c.128 1.95-.117 6.62 0 8.57v-8.57Z"/><path stroke="#263238" stroke-miterlimit="10" d="M816.722 1000.87c.128 1.95-.117 6.62 0 8.57"/><path fill="#fff" d="M818.863 1003.57c-.232 3.2-.469 6.41-.71 9.61v-1.23"/><path stroke="#263238" stroke-miterlimit="10" d="M818.863 1003.57c-.232 3.2-.469 6.41-.71 9.61v-1.23"/><path fill="#fff" d="M836.594 1030.56c.845 3.54.459 7.26-1.094 10.55l1.094-10.55Z"/><path stroke="#263238" stroke-miterlimit="10" d="M836.594 1030.56c.845 3.54.459 7.26-1.094 10.55M807.117 1013.78c-2.537 2.78-2.165 9.46-.372 13.14M825.872 1018.37a13.146 13.146 0 0 1-3.108 8.55M788.631 1015.11a11.91 11.91 0 0 0 1.734 8.15M777.826 1023.81c-.111 2.21.52 4.4 1.793 6.21M792.634 970.115a3.715 3.715 0 0 1 4.075.664l1.467-1.91M804.579 978.673a4.812 4.812 0 0 1 6.159 1.037M823.229 984.495a7.775 7.775 0 0 1 6.625.14M781.726 994.265a6.303 6.303 0 0 1 6.1-3.028M773.915 1005.4a3.3 3.3 0 0 1 2.759-3.1"/><path fill="#fff" stroke="#263238" stroke-linecap="round" stroke-linejoin="round" d="m1079.91 726.727-390.585 1.839 5.903-8.849a15.334 15.334 0 0 1 12.736-6.87h353.396a15.27 15.27 0 0 1 11.92 5.705l6.63 8.175Z"/><path fill="#757575" stroke="#263238" stroke-linecap="round" stroke-linejoin="round" d="M891.404 785.286h-21.398c-21.957 0-39.757 17.803-39.757 39.765v21.402c0 21.962 17.8 39.765 39.757 39.765h21.398c21.957 0 39.756-17.803 39.756-39.765v-21.402c0-21.962-17.799-39.765-39.756-39.765Z"/><path fill="#999" stroke="#263238" stroke-linecap="round" stroke-linejoin="round" d="M848.585 844.287v14.346a8.15 8.15 0 0 0 8.149 8.151h49.21a8.153 8.153 0 0 0 8.15-8.093c.069-6.463.407-14.404.407-14.404h-65.916Z"/><path fill="#fff" stroke="#263238" stroke-linecap="round" stroke-linejoin="round" d="M1028.68 849.073H740.899a7.369 7.369 0 0 1-6.869-4.658l-44.39-113.986a4.543 4.543 0 0 1 2.114-5.672 4.541 4.541 0 0 1 2.123-.522h381.853a4.524 4.524 0 0 1 3.71 2.001c.41.609.67 1.309.75 2.039a4.52 4.52 0 0 1-.28 2.154l-44.39 113.951a7.381 7.381 0 0 1-6.84 4.693Z"/><path fill="#fff" d="M1030.83 839.14H738.069l-40.28-107.686h373.131l-40.09 107.686Z"/><path fill="#263238" d="M914.163 848.922h-65.264v4.471h65.264v-4.471Z"/><path fill="#38BFF2" d="M988.066 834.529H781.331c-1.164 0-2.212-.512-2.422-1.164l-29.407-93.445c-.326-1.048.594-1.898 2.061-1.898h266.267c1.47 0 2.39.85 2.05 1.898l-29.392 93.445c-.221.64-1.292 1.164-2.422 1.164Z"/><path fill="#263238" d="M985.994 832.398H783.426a1.744 1.744 0 0 1-1.688-1.257l-23.935-78.552a1.766 1.766 0 0 1 .886-2.142c.252-.126.531-.191.813-.187h250.388c.29-.004.57.061.82.187s.47.311.63.539c.17.228.28.492.32.771.05.279.02.564-.07.832l-23.908 78.552a1.763 1.763 0 0 1-1.688 1.257Z"/><path fill="#fff" d="M811.552 770.684h-38.848c-.967 0-1.595.512-1.409 1.164a2.125 2.125 0 0 0 2.049 1.165h38.627c.955 0 1.63-.513 1.525-1.165-.104-.652-.989-1.164-1.944-1.164ZM812.844 777.775h-33.039c-.943 0-1.56.501-1.397 1.164a2.054 2.054 0 0 0 1.991 1.165h32.911c.943 0 1.607-.501 1.502-1.165-.105-.663-1.025-1.164-1.968-1.164Z"/><path fill="#fff" d="M814.102 784.622h-37.486c-.932 0-1.537.477-1.374 1.071a2.058 2.058 0 0 0 1.979 1.095h37.254c.919 0 1.583-.478 1.478-1.072-.105-.593-.919-1.094-1.851-1.094Z" opacity=".5"/><path fill="#fff" d="M815.313 791.236h-22.015c-.908 0-1.536.466-1.397 1.036.14.571.99 1.036 1.898 1.036h21.898c.908 0 1.56-.465 1.455-1.036-.104-.57-.919-1.036-1.839-1.036ZM816.489 797.617h-36.23c-.884 0-1.49.454-1.327 1.001.163.548 1.001 1.002 1.898 1.002h36.09c.884 0 1.525-.443 1.432-1.002-.094-.559-.967-1.001-1.863-1.001ZM817.618 803.8h-29.245c-.884 0-1.478.431-1.338.966.139.536.966.967 1.839.967h29.104c.874 0 1.502-.431 1.409-.967-.093-.535-.885-.966-1.769-.966ZM818.713 809.773h-28.767c-.874 0-1.456.42-1.316.932.14.512.943.943 1.805.943h28.627c.861 0 1.478-.419 1.385-.943-.093-.524-.861-.932-1.734-.932ZM819.772 815.549h-31.433c-.85 0-1.432.408-1.292.908.139.501.931.909 1.781.909h31.235c.85 0 1.467-.408 1.374-.909-.094-.5-.804-.908-1.665-.908Z"/><path fill="#fff" d="M820.808 821.15h-20.304c-.838 0-1.42.396-1.304.885.117.489.897.873 1.723.873h20.176c.838 0 1.443-.396 1.362-.873-.082-.478-.815-.885-1.653-.885ZM810.202 763.325h-28.953c-.978 0-1.63.535-1.455 1.164a2.11 2.11 0 0 0 2.061 1.164h28.778c.978 0 1.665-.535 1.548-1.164a1.93 1.93 0 0 0-1.979-1.164Z" opacity=".5"/><path fill="#fff" d="M808.794 755.698H768.49c-.99 0-1.642.547-1.444 1.234a2.226 2.226 0 0 0 2.142 1.234h40.071c.978 0 1.688-.547 1.56-1.234-.128-.687-1.001-1.234-2.025-1.234ZM821.798 826.576h-33.401c-.826 0-1.385.384-1.257.85.128.466.908.85 1.734.85h33.238c.815 0 1.42-.384 1.339-.85-.082-.466-.827-.85-1.653-.85Z"/><path fill="#fff" d="M825.197 773.269h7.533l-.373-2.876h-7.59l.43 2.876ZM826.245 780.267h7.404l-.361-2.771h-7.462l.419 2.771ZM827.258 787.032h7.276l-.349-2.678h-7.323l.396 2.678ZM828.247 793.565h7.148l-.349-2.597h-7.194l.395 2.597ZM829.19 799.864h7.032l-.338-2.492h-7.066l.372 2.492ZM830.11 805.966h6.903l-.314-2.411h-6.962l.373 2.411ZM830.995 811.881h6.799l-.303-2.352h-6.845l.349 2.352ZM831.844 817.587h6.694l-.291-2.259h-6.741l.338 2.259ZM832.682 823.129h6.59l-.291-2.2h-6.625l.326 2.2ZM824.103 766.014h7.672l-.385-2.992h-7.73l.443 2.992ZM822.973 758.481h7.812l-.396-3.098h-7.881l.465 3.098ZM833.486 828.486h6.484l-.279-2.131h-6.52l.315 2.131Z" opacity=".5"/><path fill="#fff" d="M873.196 816.457c0-.5.652-.908 1.502-.908H986.25c.85 0 1.432.408 1.281.908a1.893 1.893 0 0 1-1.793.909H874.756c-.85 0-1.548-.408-1.56-.909ZM987.379 811.648h-61.771c-.862 0-1.514-.419-1.455-.943.058-.524.803-.932 1.676-.932h62.109c.862 0 1.444.42 1.292.932a1.89 1.89 0 0 1-.785.747 1.89 1.89 0 0 1-1.066.196Z"/><path fill="#fff" d="M910.95 811.648h-19.209c-.861 0-1.56-.419-1.548-.943.012-.524.71-.932 1.583-.932h19.326c.861 0 1.536.42 1.49.932-.047.512-.78.943-1.642.943Z" opacity=".5"/><path fill="#fff" d="M951.045 805.733h-87.128c-.873 0-1.606-.431-1.641-.967-.035-.535.652-.966 1.536-.966h87.593c.874 0 1.514.431 1.409.966-.105.536-.885.967-1.769.967Z"/><path fill="#fff" d="M845.71 803.8h6.205c.873 0 1.63.431 1.677.966.046.536-.629.967-1.502.967h-6.182c-.873 0-1.63-.431-1.688-.967-.058-.535.605-.966 1.49-.966Z" opacity=".5"/><path fill="#fff" d="M963.653 798.618c-.116.559-.931 1.002-1.828 1.002h-82.098c-.896 0-1.618-.443-1.63-1.002-.011-.559.71-1.001 1.595-1.001h82.552c.897 0 1.525.454 1.409 1.001ZM845.047 797.617h23.283c.897 0 1.642.454 1.665 1.001.023.548-.687 1.002-1.572 1.002h-23.167c-.885 0-1.653-.443-1.723-1.002-.07-.559.617-1.001 1.514-1.001ZM844.359 791.236h89.572c.908 0 1.584.466 1.502 1.036-.081.571-.873 1.036-1.781 1.036H844.58c-.896 0-1.688-.465-1.746-1.036-.058-.57.617-1.036 1.525-1.036ZM902.51 786.788c-.919 0-1.641-.478-1.618-1.072.023-.593.792-1.071 1.723-1.071h47.254c.932 0 1.595.478 1.49 1.071-.104.594-.931 1.072-1.851 1.072H902.51ZM843.661 784.622h40.897c.932 0 1.677.477 1.677 1.071s-.745 1.095-1.677 1.095h-40.665c-.931 0-1.723-.478-1.792-1.072-.07-.593.628-1.094 1.56-1.094ZM996.46 779.999H883.872c-.932 0-1.7-.501-1.7-1.164 0-.664.757-1.165 1.7-1.165h113.216c.943 0 1.56.501 1.386 1.165a2.114 2.114 0 0 1-2.014 1.164ZM998.416 772.978H899.46c-.955 0-1.711-.513-1.688-1.165.023-.652.815-1.164 1.781-1.164h99.631c.956 0 1.586.512 1.396 1.164-.2.393-.51.716-.898.924-.388.208-.83.292-1.266.241Z"/><path fill="#fff" d="M1000.56 765.712h-20.771c-.978 0-1.642-.536-1.491-1.165a2.067 2.067 0 0 1 2.049-1.164h20.863c.98 0 1.62.535 1.42 1.164-.2.373-.5.682-.86.888a2.2 2.2 0 0 1-1.21.277Z" opacity=".5"/><path fill="#fff" d="M965.294 765.712h-76.172c-.966 0-1.758-.536-1.746-1.165.011-.629.791-1.164 1.769-1.164h76.673c.978 0 1.665.535 1.525 1.164a2 2 0 0 1-2.049 1.165ZM847.549 821.15h70.352c.838 0 1.478.396 1.42.885-.058.489-.757.873-1.595.873h-69.979c-.838 0-1.56-.396-1.606-.873-.047-.478.57-.885 1.408-.885ZM848.131 826.576h108.083c.815 0 1.409.384 1.304.85-.105.466-.838.85-1.665.85H848.318c-.827 0-1.537-.384-1.584-.85-.046-.466.571-.85 1.397-.85ZM961.511 758.166h-55.066c-.989 0-1.758-.547-1.723-1.234.035-.687.862-1.234 1.863-1.234h55.392c1.001 0 1.7.547 1.571 1.234a2.013 2.013 0 0 1-2.037 1.234Z"/><path fill="#fff" d="M890.892 758.166h-50.06c-.99 0-1.851-.547-1.933-1.234-.081-.687.664-1.234 1.665-1.234h50.351c.989 0 1.793.547 1.781 1.234-.012.687-.815 1.234-1.804 1.234ZM933.501 821.15c.838 0 1.467.396 1.397.885-.07.489-.803.873-1.642.873h-5.436c-.827 0-1.456-.396-1.397-.873.058-.478.78-.885 1.618-.885h5.46ZM866.782 816.457c0 .501-.641.909-1.491.909h-7.404c-.85 0-1.571-.408-1.606-.909-.035-.5.617-.908 1.467-.908h7.439c.861 0 1.571.408 1.595.908ZM956.132 792.272c-.104.571-.919 1.036-1.827 1.036h-8.662c-.908 0-1.56-.465-1.478-1.036.081-.57.908-1.036 1.816-1.036h8.708c.908 0 1.56.466 1.443 1.036ZM983.153 797.617c.897 0 1.502.454 1.351 1.001a1.927 1.927 0 0 1-1.875 1.002h-6.903c-.897 0-1.502-.443-1.374-1.002a1.893 1.893 0 0 1 1.863-1.001h6.938ZM870.239 779.999c-.931 0-1.711-.501-1.746-1.164-.035-.664.722-1.165 1.665-1.165h7.346c.943 0 1.711.501 1.723 1.165.011.663-.745 1.164-1.677 1.164h-7.311Z" opacity=".5"/><path fill="#fff" d="M770.236 744.146a2.484 2.484 0 0 1-1.221 3.2 2.486 2.486 0 0 1-1.224.235 5.186 5.186 0 0 1-4.587-3.435 2.488 2.488 0 0 1 .232-2.425 2.498 2.498 0 0 1 2.189-1.068 5.146 5.146 0 0 1 4.611 3.493ZM779.666 744.205a2.547 2.547 0 0 1-.352 2.406 2.55 2.55 0 0 1-2.209 1.017 4.961 4.961 0 0 1-4.471-3.423 2.574 2.574 0 0 1 2.538-3.494 4.944 4.944 0 0 1 4.494 3.494ZM789.246 744.146a2.634 2.634 0 0 1-.445 2.438 2.638 2.638 0 0 1-2.267.998 4.778 4.778 0 0 1-4.366-3.436 2.653 2.653 0 0 1 2.655-3.493 4.728 4.728 0 0 1 4.423 3.493Z"/><path fill="#fff" stroke="#263238" stroke-linecap="round" stroke-linejoin="round" d="M781.051 885.88h-24.553a5.82 5.82 0 0 0-5.821 5.822v11.959a5.82 5.82 0 0 0 5.821 5.822h6.415l4.866 11.027 6.857-11.027h6.415a5.82 5.82 0 0 0 5.821-5.822v-12.005a5.824 5.824 0 0 0-5.821-5.776Z"/><path fill="#263238" d="M765.358 892.75a1.166 1.166 0 0 1 2.328-.081c0 .309-.122.605-.341.823a1.165 1.165 0 0 1-1.987-.742Zm.256 2.434h1.874v7.988h-1.909l.035-7.988ZM771.994 894.742v.477h2.2v1.502h-2.131v6.428h-1.827v-6.428h-1.362v-1.502h1.362v-.512a2.575 2.575 0 0 1 2.852-2.76c.597-.03 1.189.12 1.7.431l-.524 1.409a1.845 1.845 0 0 0-1.036-.326c-.827 0-1.234.454-1.234 1.281Z"/><path fill="#fff" stroke="#263238" stroke-linecap="round" stroke-linejoin="round" d="M855.815 887.557h-24.564a5.818 5.818 0 0 0-5.821 5.822v11.947a5.822 5.822 0 0 0 5.821 5.822h6.426l4.855 11.027 6.857-11.027h6.426a5.82 5.82 0 0 0 5.821-5.822v-11.993a5.824 5.824 0 0 0-5.821-5.776Z"/><path fill="#263238" d="M836.42 901.425h-6.275a2.434 2.434 0 0 0 2.596 1.922 2.86 2.86 0 0 0 2.165-.874l1.001 1.165a4.485 4.485 0 0 1-4.701 1.03 4.483 4.483 0 0 1-2.924-3.825 3.97 3.97 0 0 1 4.121-4.087 3.892 3.892 0 0 1 3.805 2.534c.19.511.27 1.056.235 1.6 0 .128-.012.361-.023.535Zm-6.287-1.234h4.529a2.178 2.178 0 0 0-2.259-1.956 2.2 2.2 0 0 0-2.27 1.956ZM838.236 893.729h1.851v11.097h-1.874l.023-11.097ZM841.646 904.034l.711-1.421c.837.513 1.8.787 2.782.792 1.164 0 1.676-.326 1.676-.885 0-1.525-4.936-.093-4.936-3.272 0-1.514 1.362-2.504 3.493-2.504a6.432 6.432 0 0 1 2.992.687l-.722 1.421a4.4 4.4 0 0 0-2.328-.594c-1.165 0-1.677.373-1.677.897 0 1.618 4.936.174 4.936 3.307 0 1.49-1.373 2.468-3.62 2.468a6.391 6.391 0 0 1-3.307-.896ZM857.736 901.425h-6.275a2.431 2.431 0 0 0 2.596 1.922 2.874 2.874 0 0 0 2.166-.874l1.001 1.165a4.488 4.488 0 0 1-6.721-.457 4.495 4.495 0 0 1-.905-2.338 3.971 3.971 0 0 1 4.122-4.087 3.897 3.897 0 0 1 2.94 1.167 3.892 3.892 0 0 1 1.099 2.967c0 .128-.011.361-.023.535Zm-6.286-1.234h4.528a2.178 2.178 0 0 0-2.258-1.956 2.2 2.2 0 0 0-2.27 1.956Z"/><path fill="#fff" stroke="#263238" stroke-linecap="round" stroke-linejoin="round" d="M928.297 886.847h-24.564a5.82 5.82 0 0 0-5.821 5.822v11.959a5.82 5.82 0 0 0 5.821 5.822h6.426l4.855 11.027 6.857-11.027h6.426a5.819 5.819 0 0 0 5.821-5.822v-12.006a5.82 5.82 0 0 0-5.821-5.775Z"/><path fill="#263238" d="M909.367 895.708v.536h2.201v1.502h-2.142v6.427h-1.817v-6.427h-1.315v-1.502h1.315v-.513a2.575 2.575 0 0 1 2.853-2.759 2.95 2.95 0 0 1 1.688.431l-.524 1.408a1.79 1.79 0 0 0-1.025-.337c-.826-.058-1.234.384-1.234 1.234ZM912.045 900.121a4.269 4.269 0 0 1 2.517-4.053 4.267 4.267 0 0 1 4.699.823 4.263 4.263 0 0 1-2.967 7.329 4.014 4.014 0 0 1-4.249-4.099Zm6.624 0a2.33 2.33 0 0 0-2.874-2.099 2.325 2.325 0 0 0-1.742 1.865 2.323 2.323 0 0 0 1.013 2.342 2.324 2.324 0 0 0 2.982-.355 2.331 2.331 0 0 0 .621-1.753ZM926.958 896.034v1.782a2.819 2.819 0 0 0-.431 0 2.174 2.174 0 0 0-2.328 2.468v3.878h-1.875v-8.035h1.781v1.165a3.15 3.15 0 0 1 2.853-1.258Z"/><path fill="#fff" stroke="#263238" stroke-linecap="round" stroke-linejoin="round" d="M999.731 885.88h-24.599a5.82 5.82 0 0 0-5.821 5.822v11.959a5.822 5.822 0 0 0 5.821 5.822h6.426l4.855 11.027 6.857-11.027h6.426a5.812 5.812 0 0 0 4.114-1.705 5.835 5.835 0 0 0 1.71-4.117v-12.005a5.87 5.87 0 0 0-1.71-4.075 5.828 5.828 0 0 0-4.079-1.701Z"/><path fill="#263238" d="M984.259 894.765h6.892v1.479h-6.892v-1.479Zm0 3.621h6.892v1.502h-6.892v-1.502Z"/><path fill="#fff" stroke="#263238" stroke-linecap="round" stroke-linejoin="round" d="M818.491 872.059h-24.564a5.818 5.818 0 0 0-5.821 5.822v11.947a5.822 5.822 0 0 0 5.821 5.822h6.426l4.855 11.027 6.857-11.027h6.426a5.824 5.824 0 0 0 5.821-5.822v-11.994a5.823 5.823 0 0 0-5.821-5.775Z"/><path fill="#263238" d="M800.435 877.019h3.562v1.502h-1.7v11.004h1.7v1.502h-3.562v-14.008ZM808.654 891.027v-1.502h1.688v-11.004h-1.688v-1.502h3.492v13.973l-3.492.035Z"/><path fill="#fff" stroke="#263238" stroke-linecap="round" stroke-linejoin="round" d="M891.509 870.836h-24.564a5.82 5.82 0 0 0-5.821 5.822v11.9a5.82 5.82 0 0 0 5.821 5.823h6.426l4.866 11.027 6.858-11.027h6.414a5.819 5.819 0 0 0 5.821-5.823v-11.947a5.821 5.821 0 0 0-5.821-5.775Z"/><path fill="#263238" d="M874.232 882.748c.594.198.885.606.885 1.525v2.853a.999.999 0 0 0 1.106 1.165h.314v1.502h-.757a2.23 2.23 0 0 1-2.538-2.445v-3.075c0-.5-.256-.722-.675-.722h-.489v-1.525h.489c.419 0 .675-.221.675-.722v-3.086a2.207 2.207 0 0 1 1.534-2.357 2.19 2.19 0 0 1 1.004-.076h.757v1.502h-.361a.994.994 0 0 0-.851.299.997.997 0 0 0-.255.865v2.841c.047.862-.244 1.27-.838 1.456ZM885.641 881.991v1.526h-.512c-.407 0-.664.221-.664.721v3.075a2.234 2.234 0 0 1-2.549 2.445h-.757v-1.502h.315a1.016 1.016 0 0 0 1.129-.69 1.02 1.02 0 0 0 .035-.475v-2.853c0-.919.267-1.327.861-1.525-.594-.186-.861-.594-.861-1.525v-2.842a1.004 1.004 0 0 0-.687-1.135 1.001 1.001 0 0 0-.477-.029h-.315v-1.432h.757a2.222 2.222 0 0 1 2.549 2.433v3.086c0 .501.257.722.664.722h.512Z"/><path fill="#fff" stroke="#263238" stroke-linecap="round" stroke-linejoin="round" d="M963.758 868.414h-24.564a5.82 5.82 0 0 0-5.821 5.822v11.947a5.822 5.822 0 0 0 5.821 5.822h6.415l4.866 11.027 6.857-11.027h6.426a5.818 5.818 0 0 0 5.821-5.822v-11.994a5.82 5.82 0 0 0-5.821-5.775Z"/><path fill="#263238" d="M950.498 877.252a1.234 1.234 0 1 1 2.456 0 1.234 1.234 0 1 1-2.456 0Zm2.456 5.706c-.031.445-.15.88-.349 1.28l-.768 2.12h-1.164l.605-2.329a1.163 1.163 0 0 1-.71-1.106 1.218 1.218 0 0 1 2.077-.861c.228.228.356.538.356.861l-.047.035Z"/><path fill="#fff" stroke="#263238" stroke-linecap="round" stroke-linejoin="round" d="M867.736 1077.36h24.553c1.543 0 3.024-.61 4.116-1.71a5.813 5.813 0 0 0 1.704-4.11v-11.92c-.015-1.53-.635-3-1.725-4.08a5.856 5.856 0 0 0-4.095-1.68h-6.415L884 1042.83l-9.849 11.03h-6.415c-1.534 0-3.006.61-4.096 1.68a5.831 5.831 0 0 0-1.725 4.08v11.96a5.82 5.82 0 0 0 5.821 5.78Z"/><path fill="#263238" d="m876.363 1063.15-5.158 1.94 5.158 1.93v1.56l-6.892-2.68v-1.63l6.892-2.68v1.56ZM881.812 1057.71h1.664l-4.971 14.11h-1.63l4.937-14.11ZM890.729 1064.27v1.62l-6.892 2.68v-1.56l5.146-1.92-5.158-1.93v-1.57l6.904 2.68Z"/><path fill="#fff" stroke="#263238" stroke-linecap="round" stroke-linejoin="round" d="M711.595 990.318h24.553a5.82 5.82 0 0 0 5.821-5.823v-11.9a5.822 5.822 0 0 0-5.821-5.822h-6.415l1.397-11.027-13.12 11.027h-6.415a5.821 5.821 0 0 0-5.821 5.822v11.947a5.824 5.824 0 0 0 5.821 5.776Z"/><path fill="#263238" d="M718.872 982.737a1.164 1.164 0 1 1 2.328 0 1.164 1.164 0 0 1-2.328 0Zm.14-9.408h2.212l-.373 6.986h-1.513l-.326-6.986ZM723.121 976.007h6.892v1.502h-6.892v-1.502Zm0 3.621h6.892v1.502h-6.892v-1.502Z"/><defs><linearGradient id="c" x1="1570.63" x2="-104.498" y1="-1924.16" y2="-1640.11" gradientUnits="userSpaceOnUse"><stop stop-color="#fff"/><stop offset="1" stop-color="#fff" stop-opacity="0"/></linearGradient><linearGradient id="d" x1="1171.84" x2="1816.39" y1="-15.355" y2="681.965" gradientUnits="userSpaceOnUse"><stop stop-color="#fff"/><stop offset="1" stop-color="#fff" stop-opacity="0"/></linearGradient><linearGradient id="f" x1="1385.6" x2="155.723" y1="-1164.32" y2="-955.773" gradientUnits="userSpaceOnUse"><stop stop-color="#fff"/><stop offset="1" stop-color="#fff" stop-opacity="0"/></linearGradient><linearGradient id="g" x1="1092.8" x2="1566.04" y1="237.118" y2="749.089" gradientUnits="userSpaceOnUse"><stop stop-color="#fff"/><stop offset="1" stop-color="#fff" stop-opacity="0"/></linearGradient><linearGradient id="i" x1="1227.64" x2="377.861" y1="-515.677" y2="-371.582" gradientUnits="userSpaceOnUse"><stop stop-color="#fff"/><stop offset="1" stop-color="#fff" stop-opacity="0"/></linearGradient><linearGradient id="j" x1="1025.34" x2="1352.32" y1="452.645" y2="806.391" gradientUnits="userSpaceOnUse"><stop stop-color="#fff"/><stop offset="1" stop-color="#fff" stop-opacity="0"/></linearGradient><linearGradient id="l" x1="1099.41" x2="558.205" y1="10.925" y2="102.694" gradientUnits="userSpaceOnUse"><stop stop-color="#fff"/><stop offset="1" stop-color="#fff" stop-opacity="0"/></linearGradient><linearGradient id="m" x1="970.563" x2="1178.81" y1="627.62" y2="852.911" gradientUnits="userSpaceOnUse"><stop stop-color="#fff"/><stop offset="1" stop-color="#fff" stop-opacity="0"/></linearGradient><filter id="a" width="2009" height="2009" x="0" y="0" color-interpolation-filters="sRGB" filterUnits="userSpaceOnUse"><feFlood flood-opacity="0" result="BackgroundImageFix"/><feColorMatrix in="SourceAlpha" result="hardAlpha" values="0 0 0 0 0 0 0 0 0 0 0 0 0 0 0 0 0 0 127 0"/><feMorphology in="SourceAlpha" radius="91" result="effect1_dropShadow_7206_3"/><feOffset dx="130" dy="70"/><feGaussianBlur stdDeviation="121.5"/><feColorMatrix values="0 0 0 0 0 0 0 0 0 0 0 0 0 0 0 0 0 0 0.05 0"/><feBlend in2="BackgroundImageFix" result="effect1_dropShadow_7206_3"/><feBlend in="SourceGraphic" in2="effect1_dropShadow_7206_3" result="shape"/></filter><filter id="b" width="1436.17" height="1436.18" x="156.411" y="246.412" color-interpolation-filters="sRGB" filterUnits="userSpaceOnUse"><feFlood flood-opacity="0" result="BackgroundImageFix"/><feGaussianBlur in="BackgroundImageFix" stdDeviation="30"/><feComposite in2="SourceAlpha" operator="in" result="effect1_backgroundBlur_7206_3"/><feColorMatrix in="SourceAlpha" result="hardAlpha" values="0 0 0 0 0 0 0 0 0 0 0 0 0 0 0 0 0 0 127 0"/><feOffset dy="30"/><feGaussianBlur stdDeviation="50"/><feColorMatrix values="0 0 0 0 0 0 0 0 0 0.507158 0 0 0 0 0.666667 0 0 0 0.06 0"/><feBlend in2="effect1_backgroundBlur_7206_3" result="effect2_dropShadow_7206_3"/><feBlend in="SourceGraphic" in2="effect2_dropShadow_7206_3" result="shape"/></filter><filter id="e" width="1107.6" height="1107.6" x="320.701" y="410.701" color-interpolation-filters="sRGB" filterUnits="userSpaceOnUse"><feFlood flood-opacity="0" result="BackgroundImageFix"/><feGaussianBlur in="BackgroundImageFix" stdDeviation="30"/><feComposite in2="SourceAlpha" operator="in" result="effect1_backgroundBlur_7206_3"/><feColorMatrix in="SourceAlpha" result="hardAlpha" values="0 0 0 0 0 0 0 0 0 0 0 0 0 0 0 0 0 0 127 0"/><feOffset dy="30"/><feGaussianBlur stdDeviation="50"/><feColorMatrix values="0 0 0 0 0 0 0 0 0 0.507158 0 0 0 0 0.666667 0 0 0 0.06 0"/><feBlend in2="effect1_backgroundBlur_7206_3" result="effect2_dropShadow_7206_3"/><feBlend in="SourceGraphic" in2="effect2_dropShadow_7206_3" result="shape"/></filter><filter id="h" width="827.104" height="827.103" x="460.948" y="550.948" color-interpolation-filters="sRGB" filterUnits="userSpaceOnUse"><feFlood flood-opacity="0" result="BackgroundImageFix"/><feGaussianBlur in="BackgroundImageFix" stdDeviation="30"/><feComposite in2="SourceAlpha" operator="in" result="effect1_backgroundBlur_7206_3"/><feColorMatrix in="SourceAlpha" result="hardAlpha" values="0 0 0 0 0 0 0 0 0 0 0 0 0 0 0 0 0 0 127 0"/><feOffset dy="30"/><feGaussianBlur stdDeviation="50"/><feColorMatrix values="0 0 0 0 0 0 0 0 0 0.507158 0 0 0 0 0.666667 0 0 0 0.06 0"/><feBlend in2="effect1_backgroundBlur_7206_3" result="effect2_dropShadow_7206_3"/><feBlend in="SourceGraphic" in2="effect2_dropShadow_7206_3" result="shape"/></filter><filter id="k" width="599.384" height="599.384" x="574.808" y="664.808" color-interpolation-filters="sRGB" filterUnits="userSpaceOnUse"><feFlood flood-opacity="0" result="BackgroundImageFix"/><feGaussianBlur in="BackgroundImageFix" stdDeviation="30"/><feComposite in2="SourceAlpha" operator="in" result="effect1_backgroundBlur_7206_3"/><feColorMatrix in="SourceAlpha" result="hardAlpha" values="0 0 0 0 0 0 0 0 0 0 0 0 0 0 0 0 0 0 127 0"/><feOffset dy="30"/><feGaussianBlur stdDeviation="50"/><feColorMatrix values="0 0 0 0 0 0 0 0 0 0.507158 0 0 0 0 0.666667 0 0 0 0.06 0"/><feBlend in2="effect1_backgroundBlur_7206_3" result="effect2_dropShadow_7206_3"/><feBlend in="SourceGraphic" in2="effect2_dropShadow_7206_3" result="shape"/></filter></defs></svg>