<svg xmlns="http://www.w3.org/2000/svg" width="1111" height="734" fill="none"><g filter="url(#a)"><ellipse cx="555.5" cy="367" fill="#191A26" fill-opacity=".38" rx="381.5" ry="193"/></g><path fill="url(#b)" fill-rule="evenodd" d="M280.687 145.709h550.496c12.041 0 15.42 0 20.604 1.742a22.228 22.228 0 0 1 13.224 13.225c1.744 5.184 1.744 8.562 1.744 20.604v365.598c0 12.042 0 15.42-1.744 20.605a22.229 22.229 0 0 1-13.224 13.224c-5.184 1.743-8.563 1.743-20.604 1.743H280.687c-12.041 0-15.421 0-20.604-1.743a22.229 22.229 0 0 1-13.224-13.224c-1.744-5.185-1.744-8.563-1.744-20.605V181.28c0-12.042 0-15.42 1.744-20.604a22.228 22.228 0 0 1 13.224-13.225c5.183-1.742 8.563-1.742 20.604-1.742Z" clip-rule="evenodd"/><path stroke="#F3F3F3" stroke-width="2" d="M281.587 147.895h548.275c11.992 0 15.357 0 20.521 1.724 6.104 2.215 10.94 7.017 13.17 13.078 1.737 5.127 1.737 8.469 1.737 20.378V544.65c0 11.909 0 15.25-1.737 20.377-2.23 6.062-7.066 10.864-13.17 13.079-5.164 1.724-8.529 1.724-20.521 1.724H281.587c-11.992 0-15.358 0-20.521-1.724-6.104-2.215-10.94-7.017-13.171-13.079-1.736-5.127-1.736-8.468-1.736-20.377V183.075c0-11.909 0-15.251 1.736-20.378 2.231-6.061 7.067-10.863 13.171-13.078 5.163-1.724 8.529-1.724 20.521-1.724Z" clip-rule="evenodd"/><path fill="#F2F2F2" fill-rule="evenodd" d="M554.89 160.584a2.302 2.302 0 1 1 0 4.604 2.302 2.302 0 0 1 0-4.604Z" clip-rule="evenodd"/><g fill-rule="evenodd" clip-rule="evenodd" filter="url(#c)"><path fill="#fff" d="M175.709 567.928h760.844v4.25H175.709v-4.25Z"/><path fill="url(#d)" d="M175.709 567.928h760.844v4.25H175.709v-4.25Z" style="mix-blend-mode:multiply"/></g><path fill="url(#e)" fill-rule="evenodd" d="M908.215 567.927h28.336v4.251h-28.336v-4.251Z" clip-rule="evenodd" opacity=".1" style="mix-blend-mode:multiply"/><path fill="url(#f)" fill-rule="evenodd" d="M175.709 567.928h28.337v4.25h-28.337v-4.25Z" clip-rule="evenodd" opacity=".1" style="mix-blend-mode:multiply"/><path fill="#fff" fill-rule="evenodd" d="M175.708 572.177h760.844c-4.496 2.808-44.38 14.328-177.105 11.335-11.722 0-342.05-.354-414.426-.354-83.999 0-118.772.337-150.509-5.778-11.111-2.141-16.675-3.91-18.804-5.203Z" clip-rule="evenodd"/><path fill="url(#g)" fill-rule="evenodd" d="M175.708 572.177h760.844c-4.496 2.808-44.38 14.328-177.105 11.335-11.722 0-342.05-.354-414.426-.354-83.999 0-118.772.337-150.509-5.778-11.111-2.141-16.675-3.91-18.804-5.203Z" clip-rule="evenodd" style="mix-blend-mode:multiply"/><path fill="url(#h)" fill-rule="evenodd" d="M175.708 572.177h760.844c-4.496 2.808-44.38 14.328-177.105 11.335-11.722 0-342.05-.354-414.426-.354-83.999 0-118.772.337-150.509-5.778-11.111-2.141-16.675-3.91-18.804-5.203Z" clip-rule="evenodd" style="mix-blend-mode:multiply"/><path fill="url(#i)" fill-rule="evenodd" d="M175.708 572.177h760.844c-4.496 2.808-44.38 14.328-177.105 11.335-11.722 0-342.05-.354-414.426-.354-83.999 0-118.772.337-150.509-5.778-11.111-2.141-16.675-3.91-18.804-5.203Z" clip-rule="evenodd" style="mix-blend-mode:multiply"/><path fill="url(#j)" fill-rule="evenodd" d="M175.708 572.177h760.844c-4.496 2.808-44.38 14.328-177.105 11.335-11.722 0-342.05-.354-414.426-.354-83.999 0-118.772.337-150.509-5.778-11.111-2.141-16.675-3.91-18.804-5.203Z" clip-rule="evenodd" style="mix-blend-mode:multiply"/><path fill="url(#k)" fill-rule="evenodd" d="M175.708 572.177h760.844c-4.496 2.808-44.38 14.328-177.105 11.335-11.722 0-342.05-.354-414.426-.354-83.999 0-118.772.337-150.509-5.778-11.111-2.141-16.675-3.91-18.804-5.203Z" clip-rule="evenodd"/><g filter="url(#l)"><path fill="#fff" fill-rule="evenodd" d="M483.163 567.927h145.58v3.897c0 1.493-14.168 1.771-14.168 1.771H497.331s-14.168-.278-14.168-1.771v-3.897Z" clip-rule="evenodd"/></g><path fill="url(#m)" fill-rule="evenodd" d="M483.163 567.926h14.168v5.668s-14.168-.278-14.168-1.772v-3.896Z" clip-rule="evenodd" opacity=".07" style="mix-blend-mode:multiply"/><path fill="url(#n)" fill-rule="evenodd" d="M628.743 567.926h-14.168v5.668s14.168-.278 14.168-1.772v-3.896Z" clip-rule="evenodd" opacity=".07" style="mix-blend-mode:multiply"/><path stroke="#E1E1E1" stroke-width="3.065" d="M268.344 172.156h-1.532V534.956H845.453V172.156H268.344Z"/><defs><linearGradient id="b" x1="555.935" x2="555.935" y1="145" y2="583.158" gradientUnits="userSpaceOnUse"><stop offset=".88" stop-color="#fff"/><stop offset="1" stop-color="#F8F8F8"/></linearGradient><linearGradient id="d" x1="175.355" x2="936.907" y1="572.532" y2="572.532" gradientUnits="userSpaceOnUse"><stop stop-opacity=".04"/><stop offset="1" stop-color="#fff" stop-opacity=".04"/></linearGradient><linearGradient id="e" x1="944.085" x2="907.86" y1="566.96" y2="566.96" gradientUnits="userSpaceOnUse"><stop/><stop offset="1" stop-color="#fff"/><stop offset="1" stop-color="#fff"/></linearGradient><linearGradient id="f" x1="175.355" x2="204.4" y1="572.532" y2="572.532" gradientUnits="userSpaceOnUse"><stop/><stop offset="1" stop-color="#fff"/><stop offset="1" stop-color="#fff"/></linearGradient><linearGradient id="g" x1="175" x2="937.261" y1="587.054" y2="587.054" gradientUnits="userSpaceOnUse"><stop stop-opacity=".07"/><stop offset="1" stop-color="#EAEAEA" stop-opacity=".07"/><stop offset="1" stop-color="#fff" stop-opacity=".07"/></linearGradient><linearGradient id="h" x1="175" x2="937.261" y1="587.054" y2="587.054" gradientUnits="userSpaceOnUse"><stop stop-opacity=".07"/><stop offset="1" stop-color="#EAEAEA" stop-opacity=".07"/><stop offset="1" stop-color="#fff" stop-opacity=".07"/></linearGradient><linearGradient id="i" x1="175" x2="175" y1="571.469" y2="587.054" gradientUnits="userSpaceOnUse"><stop stop-opacity=".07"/><stop offset="1" stop-color="#fff" stop-opacity=".07"/></linearGradient><linearGradient id="j" x1="175" x2="175" y1="571.469" y2="587.054" gradientUnits="userSpaceOnUse"><stop stop-color="#fff" stop-opacity=".05"/><stop offset="1" stop-opacity=".05"/></linearGradient><linearGradient id="k" x1="556.13" x2="556.413" y1="571.469" y2="597.076" gradientUnits="userSpaceOnUse"><stop stop-color="#F9F9F9"/><stop offset="1" stop-color="#E8E8E8" stop-opacity="0"/></linearGradient><linearGradient id="m" x1="482.455" x2="497.686" y1="573.948" y2="573.948" gradientUnits="userSpaceOnUse"><stop/><stop offset="1" stop-color="#fff"/><stop offset="1" stop-color="#fff"/></linearGradient><linearGradient id="n" x1="629.098" x2="614.221" y1="567.218" y2="567.218" gradientUnits="userSpaceOnUse"><stop/><stop offset="1" stop-color="#fff"/><stop offset="1" stop-color="#fff"/></linearGradient><filter id="a" width="1111" height="734" x="0" y="0" color-interpolation-filters="sRGB" filterUnits="userSpaceOnUse"><feFlood flood-opacity="0" result="BackgroundImageFix"/><feBlend in="SourceGraphic" in2="BackgroundImageFix" result="shape"/><feGaussianBlur result="effect1_foregroundBlur_6856_3" stdDeviation="87"/></filter><filter id="c" width="760.844" height="4.25" x="175.709" y="567.928" color-interpolation-filters="sRGB" filterUnits="userSpaceOnUse"><feFlood flood-opacity="0" result="BackgroundImageFix"/><feBlend in="SourceGraphic" in2="BackgroundImageFix" result="shape"/><feColorMatrix in="SourceAlpha" result="hardAlpha" values="0 0 0 0 0 0 0 0 0 0 0 0 0 0 0 0 0 0 127 0"/><feOffset dy="1.533"/><feComposite in2="hardAlpha" k2="-1" k3="1" operator="arithmetic"/><feColorMatrix values="0 0 0 0 0 0 0 0 0 0 0 0 0 0 0 0 0 0 0.02 0"/><feBlend in2="shape" result="effect1_innerShadow_6856_3"/></filter><filter id="l" width="145.581" height="5.667" x="483.163" y="567.927" color-interpolation-filters="sRGB" filterUnits="userSpaceOnUse"><feFlood flood-opacity="0" result="BackgroundImageFix"/><feBlend in="SourceGraphic" in2="BackgroundImageFix" result="shape"/><feColorMatrix in="SourceAlpha" result="hardAlpha" values="0 0 0 0 0 0 0 0 0 0 0 0 0 0 0 0 0 0 127 0"/><feOffset dy="1.533"/><feComposite in2="hardAlpha" k2="-1" k3="1" operator="arithmetic"/><feColorMatrix values="0 0 0 0 0 0 0 0 0 0 0 0 0 0 0 0 0 0 0.03 0"/><feBlend in2="shape" result="effect1_innerShadow_6856_3"/></filter></defs></svg>