<svg xmlns="http://www.w3.org/2000/svg" width="467" height="157" fill="none"><rect width="311" height="45.133" fill="#5096FF" rx="22.567"/><path fill="#fff" d="M35.545 16.977h-4.76a3.57 3.57 0 0 0-3.57 3.57c0 1.751 1.292 3.23 2.975 3.52l-3.315 4.81h1.36l3.264-4.76h2.856v4.76h1.19v-11.9Zm-4.76 6.018c-1.31 0-2.38-1.105-2.38-2.448 0-1.36 1.07-2.448 2.38-2.448h3.57v4.896h-3.57Zm11.698 1.513c.714-.39 1.07-1.088 1.07-1.904 0-1.292-1.07-2.43-2.94-2.43-1.564 0-2.567.764-3.06 1.818l.935.544c.357-.867 1.139-1.275 2.125-1.275 1.139 0 1.819.63 1.819 1.411 0 .85-.578 1.377-1.564 1.377h-.901v1.088h1.24c1.004 0 1.633.561 1.633 1.343 0 .85-.697 1.513-2.057 1.513-1.394 0-2.108-.646-2.414-1.513l-.952.561c.425 1.088 1.41 2.04 3.366 2.04 2.142 0 3.179-1.224 3.179-2.533 0-.935-.527-1.683-1.48-2.04Zm6.635-.9H46.79v-3.23h-1.122v8.5h3.451c1.547 0 2.84-1.072 2.84-2.636s-1.293-2.635-2.84-2.635Zm4.03-3.23v8.5h1.121v-8.5h-1.122Zm-4.03 7.411H46.79v-3.094h2.33c.917 0 1.716.578 1.716 1.547 0 .97-.799 1.547-1.717 1.547Zm14.407 1.088-4.556-4.42 4.386-4.08h-1.53l-4.046 3.757v-3.757h-1.122v8.5h1.122V24.78l4.25 4.097h1.496Zm12.923-8.5h-7.14v8.5h1.122v-7.412h4.896v7.412h1.122v-8.5Zm6.928-.204c-1.513 0-2.72.731-3.434 1.87v-1.666H78.82v11.9h1.122v-5.066c.714 1.14 1.921 1.87 3.434 1.87 2.397 0 4.386-1.938 4.386-4.454s-1.989-4.454-4.386-4.454Zm-.085 7.82c-1.887 0-3.349-1.479-3.349-3.366s1.462-3.366 3.35-3.366c1.886 0 3.348 1.48 3.348 3.366 0 1.887-1.462 3.366-3.349 3.366Zm10.298 1.088c2.482 0 4.471-1.938 4.471-4.454s-1.989-4.454-4.471-4.454-4.471 1.938-4.471 4.454 1.989 4.454 4.471 4.454Zm0-1.088c-1.887 0-3.349-1.479-3.349-3.366s1.462-3.366 3.349-3.366c1.887 0 3.349 1.48 3.349 3.366 0 1.887-1.462 3.366-3.349 3.366Zm11.789-7.616h-5.44v8.5h1.122v-7.412h4.318v-1.088Zm5.922-.204c-1.513 0-2.72.731-3.434 1.87v-1.666h-1.122v11.9h1.122v-5.066c.714 1.14 1.921 1.87 3.434 1.87 2.397 0 4.386-1.938 4.386-4.454s-1.989-4.454-4.386-4.454Zm-.085 7.82c-1.887 0-3.349-1.479-3.349-3.366s1.462-3.366 3.349-3.366c1.887 0 3.349 1.48 3.349 3.366 0 1.887-1.462 3.366-3.349 3.366Zm13.647-7.616v1.666c-.714-1.139-1.921-1.87-3.434-1.87-2.397 0-4.386 1.938-4.386 4.454s1.989 4.454 4.386 4.454c1.513 0 2.72-.73 3.434-1.87v1.666h1.122v-8.5h-1.122Zm-3.349 7.616c-1.887 0-3.349-1.479-3.349-3.366s1.462-3.366 3.349-3.366c1.887 0 3.349 1.48 3.349 3.366 0 1.887-1.462 3.366-3.349 3.366Zm15.176-7.616h-1.292l-2.873 4.658-2.873-4.658h-1.292v8.5h1.122v-6.783l2.975 4.828h.136l2.975-4.828v6.783h1.122v-8.5Zm10.708 0h-1.292l-2.873 4.658-2.873-4.658h-1.292v8.5h1.122v-6.783l2.975 4.828h.136l2.975-4.828v6.783h1.122v-8.5Zm8.566 0-5.066 6.545v-6.545h-1.122v8.5h.952l5.066-6.545v6.545h1.122v-8.5h-.952Zm7.881-.204c-1.513 0-2.72.731-3.434 1.87v-1.666h-1.122v11.9h1.122v-5.066c.714 1.14 1.921 1.87 3.434 1.87 2.397 0 4.386-1.938 4.386-4.454s-1.989-4.454-4.386-4.454Zm-.085 7.82c-1.887 0-3.349-1.479-3.349-3.366s1.462-3.366 3.349-3.366c1.887 0 3.349 1.48 3.349 3.366 0 1.887-1.462 3.366-3.349 3.366Zm10.298 1.088c2.482 0 4.471-1.938 4.471-4.454s-1.989-4.454-4.471-4.454-4.471 1.938-4.471 4.454 1.989 4.454 4.471 4.454Zm0-1.088c-1.887 0-3.349-1.479-3.349-3.366s1.462-3.366 3.349-3.366c1.887 0 3.349 1.48 3.349 3.366 0 1.887-1.462 3.366-3.349 3.366Zm11.754-3.485c.663-.39.986-1.037.986-1.853 0-1.292-.901-2.278-2.601-2.278h-3.791v8.5h4.131c1.802 0 2.669-1.07 2.669-2.38 0-.918-.476-1.649-1.394-1.989Zm-1.615-3.043c.969 0 1.479.476 1.479 1.258 0 .85-.493 1.326-1.479 1.326h-2.669v-2.584h2.669Zm.34 6.324h-3.009v-2.652h3.009c1.003 0 1.547.51 1.547 1.292 0 .85-.527 1.36-1.547 1.36Zm11.679-7.412v1.666c-.714-1.139-1.921-1.87-3.434-1.87-2.397 0-4.386 1.938-4.386 4.454s1.989 4.454 4.386 4.454c1.513 0 2.72-.73 3.434-1.87v1.666h1.122v-8.5h-1.122Zm-3.349 7.616c-1.887 0-3.349-1.479-3.349-3.366s1.462-3.366 3.349-3.366c1.887 0 3.349 1.48 3.349 3.366 0 1.887-1.462 3.366-3.349 3.366Zm12.865-7.616v3.706h-4.896v-3.706h-1.122v8.5h1.122v-3.706h4.896v3.706h1.122v-8.5h-1.122Zm9.683 0-5.066 6.545v-6.545h-1.122v8.5h.952l5.066-6.545v6.545h1.122v-8.5h-.952Zm9.444 0h-3.451c-1.547 0-2.839 1.071-2.839 2.635 0 1.394 1.02 2.363 2.346 2.567l-2.686 3.298h1.428l2.618-3.264h1.462v3.264h1.122v-8.5Zm-3.451 4.182c-.918 0-1.717-.578-1.717-1.547s.799-1.547 1.717-1.547h2.329v3.094h-2.329Zm14.501-7.582h-4.25v11.9h1.19v-4.42h3.06c2.142 0 3.74-1.615 3.74-3.74 0-2.142-1.598-3.74-3.74-3.74Zm0 6.358h-3.06V18.1h3.06c1.479 0 2.55 1.088 2.55 2.618 0 1.513-1.071 2.618-2.55 2.618Zm11.728-2.958-2.754 7.123-3.196-7.123h-1.19l3.808 8.551-.221.527c-.459 1.105-1.224 1.887-2.329 1.768v1.054c1.53.12 2.788-.986 3.434-2.618l3.638-9.282h-1.19Zm7.051 1.088v-1.088h-2.448v-2.38l-1.122.34v2.04h-1.785v1.088h1.785v5.151c0 2.04 1.275 2.601 3.57 2.261v-.986c-1.649.068-2.448.187-2.448-1.275v-5.15h2.448Zm5.848-1.292c-1.207 0-2.193.46-2.856 1.53v-4.726h-1.122v11.9h1.122v-4.454c0-2.278 1.258-3.162 2.754-3.162 1.479 0 2.312.884 2.312 2.397v5.22h1.122v-5.22c0-2.125-1.258-3.485-3.332-3.485Zm9.462 8.908c2.482 0 4.471-1.938 4.471-4.454s-1.989-4.454-4.471-4.454-4.471 1.938-4.471 4.454 1.989 4.454 4.471 4.454Zm0-1.088c-1.887 0-3.349-1.479-3.349-3.366s1.462-3.366 3.349-3.366c1.887 0 3.349 1.48 3.349 3.366 0 1.887-1.462 3.366-3.349 3.366Zm10.327-7.82c-1.207 0-2.193.46-2.856 1.53v-1.326h-1.122v8.5h1.122v-4.454c0-2.278 1.258-3.162 2.754-3.162 1.479 0 2.312.884 2.312 2.397v5.22h1.122v-5.22c0-2.125-1.258-3.485-3.332-3.485Z"/><rect width="258" height="45" y="110" fill="#50C0FF" rx="22.5"/><path fill="#fff" d="M36.388 139.204c3.468 0 6.154-2.754 6.154-6.154s-2.687-6.154-6.154-6.154c-3.468 0-6.154 2.754-6.154 6.154s2.685 6.154 6.154 6.154Zm0-1.156c-2.822 0-4.964-2.227-4.964-4.998 0-2.771 2.142-4.998 4.964-4.998 2.822 0 4.964 2.227 4.964 4.998 0 2.771-2.142 4.998-4.964 4.998Zm14.139-7.548h-7.14v1.088h3.009V139h1.122v-7.412h3.009V130.5Zm7.822 0h-6.086v4.879c0 2.159-.697 2.686-1.904 2.567V139c1.7.119 3.026-.595 3.026-3.621v-3.791h3.842V139h1.122v-8.5Zm9.687 0v1.666c-.714-1.139-1.921-1.87-3.434-1.87-2.397 0-4.386 1.938-4.386 4.454s1.989 4.454 4.386 4.454c1.513 0 2.72-.731 3.434-1.87V139h1.122v-8.5h-1.122Zm-3.35 7.616c-1.886 0-3.348-1.479-3.348-3.366s1.462-3.366 3.349-3.366c1.887 0 3.349 1.479 3.349 3.366s-1.462 3.366-3.35 3.366Zm13.988-.204V130.5h-6.086v4.199c0 1.666-.323 2.499-.867 3.213h-1.037v3.366h1.122V139h6.936v2.278h1.122v-3.366h-1.19Zm-5.593 0c.408-.816.629-1.819.629-3.213v-3.111h3.842v6.324H73.08ZM88.429 139l-4.556-4.42 4.386-4.08h-1.53l-4.046 3.757V130.5H81.56v8.5h1.122v-4.097l4.25 4.097h1.496Zm7.996-8.5v1.666c-.714-1.139-1.921-1.87-3.434-1.87-2.397 0-4.386 1.938-4.386 4.454s1.989 4.454 4.386 4.454c1.513 0 2.72-.731 3.434-1.87V139h1.122v-8.5h-1.122Zm-3.35 7.616c-1.886 0-3.348-1.479-3.348-3.366s1.462-3.366 3.349-3.366c1.887 0 3.349 1.479 3.349 3.366s-1.462 3.366-3.35 3.366Zm17.285-7.616-5.066 6.545V130.5h-1.122v8.5h.952l5.066-6.545V139h1.122v-8.5h-.952Zm13.695 0h-7.14v1.088h3.009V139h1.122v-7.412h3.009V130.5Zm4.962-.204c-2.635 0-4.437 1.955-4.437 4.454 0 2.567 1.836 4.454 4.522 4.454 1.717 0 3.026-.799 3.74-1.955l-.986-.578c-.459.816-1.394 1.445-2.737 1.445-1.802 0-3.145-1.071-3.383-2.805h7.463c.017-.17.034-.357.034-.527 0-2.329-1.615-4.488-4.216-4.488Zm0 1.088c1.462 0 2.822.969 3.06 2.839h-6.341c.221-1.666 1.496-2.839 3.281-2.839Zm9.962 7.82c1.666 0 3.111-.867 3.808-2.21l-.935-.544c-.544.986-1.581 1.666-2.873 1.666-1.887 0-3.349-1.479-3.349-3.366s1.462-3.366 3.349-3.366c1.275 0 2.346.663 2.805 1.666l.918-.527c-.612-1.343-2.04-2.227-3.723-2.227-2.567 0-4.471 1.938-4.471 4.454s1.904 4.454 4.471 4.454Zm11.373-8.704h-7.14v1.088h3.009V139h1.122v-7.412h3.009V130.5Zm7.555 0-5.066 6.545V130.5h-1.122v8.5h.952l5.066-6.545V139h1.122v-8.5h-.952Zm7.881-.204c-1.513 0-2.72.731-3.434 1.87V130.5h-1.122v11.9h1.122v-5.066c.714 1.139 1.921 1.87 3.434 1.87 2.397 0 4.386-1.938 4.386-4.454s-1.989-4.454-4.386-4.454Zm-.085 7.82c-1.887 0-3.349-1.479-3.349-3.366s1.462-3.366 3.349-3.366c1.887 0 3.349 1.479 3.349 3.366s-1.462 3.366-3.349 3.366ZM176 139.204c2.482 0 4.471-1.938 4.471-4.454s-1.989-4.454-4.471-4.454-4.471 1.938-4.471 4.454 1.989 4.454 4.471 4.454Zm0-1.088c-1.887 0-3.349-1.479-3.349-3.366s1.462-3.366 3.349-3.366c1.887 0 3.349 1.479 3.349 3.366s-1.462 3.366-3.349 3.366Zm11.755-3.485c.663-.391.986-1.037.986-1.853 0-1.292-.901-2.278-2.601-2.278h-3.791v8.5h4.131c1.802 0 2.669-1.071 2.669-2.38 0-.918-.476-1.649-1.394-1.989Zm-1.615-3.043c.969 0 1.479.476 1.479 1.258 0 .85-.493 1.326-1.479 1.326h-2.669v-2.584h2.669Zm.34 6.324h-3.009v-2.652h3.009c1.003 0 1.547.51 1.547 1.292 0 .85-.527 1.36-1.547 1.36Zm11.679-7.412v1.666c-.714-1.139-1.921-1.87-3.434-1.87-2.397 0-4.386 1.938-4.386 4.454s1.989 4.454 4.386 4.454c1.513 0 2.72-.731 3.434-1.87V139h1.122v-8.5h-1.122Zm-3.349 7.616c-1.887 0-3.349-1.479-3.349-3.366s1.462-3.366 3.349-3.366c1.887 0 3.349 1.479 3.349 3.366s-1.462 3.366-3.349 3.366Zm12.865-7.616v3.706h-4.896V130.5h-1.122v8.5h1.122v-3.706h4.896V139h1.122v-8.5h-1.122Zm9.682 0-5.066 6.545V130.5h-1.122v8.5h.952l5.066-6.545V139h1.122v-8.5h-.952Zm7.252-.204c-2.635 0-4.437 1.955-4.437 4.454 0 2.567 1.836 4.454 4.522 4.454 1.717 0 3.026-.799 3.74-1.955l-.986-.578c-.459.816-1.394 1.445-2.737 1.445-1.802 0-3.145-1.071-3.383-2.805h7.463c.017-.17.034-.357.034-.527 0-2.329-1.615-4.488-4.216-4.488Zm0 1.088c1.462 0 2.822.969 3.06 2.839h-6.341c.221-1.666 1.496-2.839 3.281-2.839Z"/><rect width="151.165" height="45.133" y="56.133" fill="#FF6F50" rx="22.567"/><path fill="#fff" d="M29.99 77.87h-3.23v-3.638h5.78V73.11h-6.97v11.9h4.42a3.57 3.57 0 0 0 3.57-3.57 3.58 3.58 0 0 0-3.57-3.57Zm0 6.018h-3.23v-4.896h3.23c1.308 0 2.38 1.105 2.38 2.448 0 1.36-1.072 2.448-2.38 2.448Zm12.664-7.378v1.666c-.715-1.139-1.922-1.87-3.435-1.87-2.397 0-4.386 1.938-4.386 4.454s1.99 4.454 4.386 4.454c1.514 0 2.72-.73 3.434-1.87v1.666h1.123v-8.5h-1.123Zm-3.35 7.616c-1.887 0-3.349-1.479-3.349-3.366s1.462-3.366 3.35-3.366c1.886 0 3.349 1.48 3.349 3.366 0 1.887-1.463 3.366-3.35 3.366Zm11.233-3.485c.714-.39 1.071-1.088 1.071-1.904 0-1.292-1.07-2.43-2.94-2.43-1.565 0-2.568.764-3.06 1.818l.934.544c.357-.867 1.14-1.275 2.125-1.275 1.14 0 1.82.63 1.82 1.411 0 .85-.579 1.377-1.565 1.377h-.9v1.088h1.24c1.003 0 1.632.561 1.632 1.343 0 .85-.697 1.513-2.057 1.513-1.394 0-2.108-.646-2.414-1.513l-.952.561c.425 1.088 1.411 2.04 3.366 2.04 2.142 0 3.18-1.224 3.18-2.533 0-.935-.528-1.683-1.48-2.04Zm6.635-.9h-2.329v-3.23h-1.122v8.5h3.451c1.547 0 2.84-1.072 2.84-2.636s-1.293-2.635-2.84-2.635Zm4.03-3.23v8.5h1.121v-8.5h-1.122Zm-4.03 7.411h-2.329v-3.094h2.33c.917 0 1.716.578 1.716 1.547 0 .97-.799 1.547-1.717 1.547Zm18.93 0V76.51h-6.086v4.2c0 1.665-.323 2.498-.867 3.212h-1.037v3.366h1.122V85.01h6.936v2.278h1.122v-3.366h-1.19Zm-5.593 0c.408-.816.629-1.819.629-3.213V77.6h3.842v6.323h-4.471Zm15.458-7.412v1.666c-.714-1.139-1.921-1.87-3.434-1.87-2.397 0-4.386 1.938-4.386 4.454s1.989 4.454 4.386 4.454c1.513 0 2.72-.73 3.434-1.87v1.666h1.122v-8.5h-1.122Zm-3.349 7.616c-1.887 0-3.349-1.479-3.349-3.366s1.462-3.366 3.349-3.366c1.887 0 3.349 1.48 3.349 3.366 0 1.887-1.462 3.366-3.349 3.366Zm12.865-7.616v3.706h-4.896V76.51h-1.122v8.5h1.122v-3.706h4.896v3.706h1.122v-8.5h-1.122Zm9.512 0v3.706h-4.896V76.51h-1.122v8.5h1.122v-3.706h4.896v3.706h1.122v-8.5h-1.122Zm6.946 3.23h-2.329v-3.23h-1.122v8.5h3.451c1.547 0 2.839-1.07 2.839-2.635 0-1.564-1.292-2.635-2.839-2.635Zm4.029-3.23v8.5h1.122v-8.5h-1.122Zm-4.029 7.412h-2.329v-3.094h2.329c.918 0 1.717.578 1.717 1.547 0 .97-.799 1.547-1.717 1.547Zm14.679 1.088-3.315-4.403 3.094-4.097h-1.343l-2.431 3.213-2.431-3.213h-1.343l3.111 4.097-3.332 4.403h1.343l2.652-3.502 2.652 3.502h1.343Z"/><rect width="95" height="45.133" x="268" y="111" fill="#4B77B9" rx="22.567"/><path fill="#fff" d="M294.074 127.977h-4.59v11.9h4.59c3.281 0 5.61-2.669 5.61-5.95s-2.329-5.95-5.61-5.95Zm0 10.778h-3.4v-9.656h3.4c2.652 0 4.454 2.159 4.454 4.828 0 2.669-1.802 4.828-4.454 4.828Zm11.436 1.326c2.482 0 4.471-1.938 4.471-4.454s-1.989-4.454-4.471-4.454-4.471 1.938-4.471 4.454 1.989 4.454 4.471 4.454Zm0-1.088c-1.887 0-3.349-1.479-3.349-3.366s1.462-3.366 3.349-3.366c1.887 0 3.349 1.479 3.349 3.366s-1.462 3.366-3.349 3.366Zm10.31 1.088c1.666 0 3.111-.867 3.808-2.21l-.935-.544c-.544.986-1.581 1.666-2.873 1.666-1.887 0-3.349-1.479-3.349-3.366s1.462-3.366 3.349-3.366c1.275 0 2.346.663 2.805 1.666l.918-.527c-.612-1.343-2.04-2.227-3.723-2.227-2.567 0-4.471 1.938-4.471 4.454s1.904 4.454 4.471 4.454Zm12.287-.204-4.556-4.42 4.386-4.08h-1.53l-4.046 3.757v-7.157h-1.122v11.9h1.122v-4.097l4.25 4.097h1.496Zm4.613-8.704c-2.635 0-4.437 1.955-4.437 4.454 0 2.567 1.836 4.454 4.522 4.454 1.717 0 3.026-.799 3.74-1.955l-.986-.578c-.459.816-1.394 1.445-2.737 1.445-1.802 0-3.145-1.071-3.383-2.805h7.463c.017-.17.034-.357.034-.527 0-2.329-1.615-4.488-4.216-4.488Zm0 1.088c1.462 0 2.822.969 3.06 2.839h-6.341c.221-1.666 1.496-2.839 3.281-2.839Zm7.122.527v-1.411h-1.122v8.5h1.122v-4.726c0-2.108 1.326-2.822 2.686-2.822v-1.088c-1.088 0-2.091.357-2.686 1.547Z"/><rect width="277.481" height="45.133" x="161.165" y="55.133" fill="#4BD071" rx="22.567"/><path fill="#fff" d="M202.614 78.06c0-2.89-2.397-4.454-5.729-4.607V72.11h-1.19v1.343c-3.332.153-5.729 1.717-5.729 4.607s2.397 4.454 5.729 4.607v1.343h1.19v-1.343c3.332-.153 5.729-1.717 5.729-4.607Zm-11.458 0c0-2.26 1.87-3.383 4.539-3.519v7.038c-2.669-.136-4.539-1.258-4.539-3.519Zm5.729 3.52V74.54c2.669.136 4.539 1.258 4.539 3.52 0 2.26-1.87 3.382-4.539 3.518Zm11.98-6.274c-1.513 0-2.72.731-3.434 1.87V75.51h-1.122v11.9h1.122v-5.066c.714 1.14 1.921 1.87 3.434 1.87 2.397 0 4.386-1.938 4.386-4.454s-1.989-4.454-4.386-4.454Zm-.085 7.82c-1.887 0-3.349-1.479-3.349-3.366s1.462-3.366 3.349-3.366c1.887 0 3.349 1.48 3.349 3.366 0 1.887-1.462 3.366-3.349 3.366Zm10.263-7.82c-2.635 0-4.437 1.955-4.437 4.454 0 2.567 1.836 4.454 4.522 4.454 1.717 0 3.026-.799 3.74-1.955l-.986-.578c-.459.816-1.394 1.445-2.737 1.445-1.802 0-3.145-1.07-3.383-2.805h7.463c.017-.17.034-.357.034-.527 0-2.329-1.615-4.488-4.216-4.488Zm0 1.088c1.462 0 2.822.97 3.06 2.84h-6.341c.221-1.667 1.496-2.84 3.281-2.84Zm7.361-2.244h4.42v-.986h-4.42v.986Zm4.828 1.36-5.066 6.545V75.51h-1.122v8.5h.952l5.066-6.545v6.545h1.122v-8.5h-.952Zm11.655 0h-1.292l-2.873 4.658-2.873-4.658h-1.292v8.5h1.122v-6.783l2.975 4.828h.136l2.975-4.828v6.783h1.122v-8.5Zm7.784 4.131c.663-.39.986-1.037.986-1.853 0-1.292-.901-2.278-2.601-2.278h-3.791v8.5h4.131c1.802 0 2.669-1.07 2.669-2.38 0-.918-.476-1.649-1.394-1.989Zm-1.615-3.043c.969 0 1.479.476 1.479 1.258 0 .85-.493 1.326-1.479 1.326h-2.669v-2.584h2.669Zm.34 6.324h-3.009V80.27h3.009c1.003 0 1.547.51 1.547 1.292 0 .85-.527 1.36-1.547 1.36Zm8.33 1.292c2.482 0 4.471-1.938 4.471-4.454s-1.989-4.454-4.471-4.454-4.471 1.938-4.471 4.454 1.989 4.454 4.471 4.454Zm0-1.088c-1.887 0-3.349-1.479-3.349-3.366s1.462-3.366 3.349-3.366c1.887 0 3.349 1.48 3.349 3.366 0 1.887-1.462 3.366-3.349 3.366Zm10.904-7.82c-1.513 0-2.72.731-3.434 1.87V75.51h-1.122v11.9h1.122v-5.066c.714 1.14 1.921 1.87 3.434 1.87 2.397 0 4.386-1.938 4.386-4.454s-1.989-4.454-4.386-4.454Zm-.085 7.82c-1.887 0-3.349-1.479-3.349-3.366s1.462-3.366 3.349-3.366c1.887 0 3.349 1.48 3.349 3.366 0 1.887-1.462 3.366-3.349 3.366Zm13.205.884-4.556-4.42 4.386-4.08h-1.53l-4.046 3.757V75.51h-1.122v8.5h1.122v-4.097l4.25 4.097h1.496Zm7.72-8.5-5.066 6.545V75.51h-1.122v8.5h.952l5.066-6.545v6.545h1.122v-8.5h-.952Zm14.46-2.278V72.11h-6.715v11.9h1.19v-5.27h5.27v-1.122h-5.27v-4.386h5.525Zm1.864 10.778h1.122V71.6h-1.122v12.41Zm10.813-8.5v1.666c-.714-1.139-1.921-1.87-3.434-1.87-2.397 0-4.386 1.938-4.386 4.454s1.989 4.454 4.386 4.454c1.513 0 2.72-.73 3.434-1.87v1.666h1.122v-8.5h-1.122Zm-3.349 7.616c-1.887 0-3.349-1.479-3.349-3.366s1.462-3.366 3.349-3.366c1.887 0 3.349 1.48 3.349 3.366 0 1.887-1.462 3.366-3.349 3.366Zm7.731-5.389c0-.918.901-1.343 1.785-1.343.816 0 1.683.323 2.04 1.19l.935-.544c-.493-1.054-1.581-1.734-2.975-1.734-1.7 0-2.907 1.071-2.907 2.431 0 3.128 4.964 1.921 4.964 4.03 0 1.002-.952 1.36-1.955 1.36-1.139 0-2.023-.562-2.329-1.429l-.952.561c.425 1.088 1.581 1.955 3.281 1.955 1.819 0 3.077-1.003 3.077-2.448 0-3.128-4.964-1.92-4.964-4.029Zm13.62 6.273-4.556-4.42 4.386-4.08h-1.53l-4.046 3.757V72.11h-1.122v11.9h1.122v-4.097l4.25 4.097h1.496Zm11.971-8.5-5.066 6.545V75.51h-1.122v8.5h.952l5.066-6.545v6.545h1.122v-8.5h-.952Zm12.335-3.4h-4.59v11.9h4.59c3.281 0 5.61-2.669 5.61-5.95 0-3.28-2.329-5.95-5.61-5.95Zm0 10.778h-3.4v-9.656h3.4c2.652 0 4.454 2.16 4.454 4.828 0 2.67-1.802 4.828-4.454 4.828Zm8.278-10.812a.816.816 0 1 0 0 1.633.816.816 0 0 0 0-1.633Zm-.561 12.614c0 1.462-.629 1.972-1.938 1.836v1.088c1.955.17 3.06-.884 3.06-2.924v-9.18h-1.122v9.18Zm10.82-9.18v1.666c-.714-1.139-1.921-1.87-3.434-1.87-2.397 0-4.386 1.938-4.386 4.454s1.989 4.454 4.386 4.454c1.513 0 2.72-.73 3.434-1.87v1.666h1.122v-8.5h-1.122Zm-3.349 7.616c-1.887 0-3.349-1.479-3.349-3.366s1.462-3.366 3.349-3.366c1.887 0 3.349 1.48 3.349 3.366 0 1.887-1.462 3.366-3.349 3.366Zm10.824-7.82c-1.207 0-2.193.46-2.856 1.53V75.51h-1.122v8.5h1.122v-4.454c0-2.278 1.258-3.162 2.754-3.162 1.479 0 2.312.884 2.312 2.397v5.22h1.122v-5.22c0-2.125-1.258-3.485-3.332-3.485Zm12.812.204v1.666c-.714-1.139-1.921-1.87-3.434-1.87-2.397 0-4.386 1.938-4.386 4.454s1.989 4.454 4.386 4.454c1.513 0 2.72-.73 3.434-1.87v1.326c0 1.734-1.173 2.856-3.145 2.856-1.836 0-2.618-.68-3.043-1.547l-.986.561c.663 1.326 2.074 2.074 4.029 2.074 2.193 0 4.267-1.36 4.267-3.944v-8.16h-1.122Zm-3.349 7.616c-1.887 0-3.349-1.479-3.349-3.366s1.462-3.366 3.349-3.366c1.887 0 3.349 1.48 3.349 3.366 0 1.887-1.462 3.366-3.349 3.366Zm10.808 1.088c2.482 0 4.471-1.938 4.471-4.454s-1.989-4.454-4.471-4.454-4.471 1.938-4.471 4.454 1.989 4.454 4.471 4.454Zm0-1.088c-1.887 0-3.349-1.479-3.349-3.366s1.462-3.366 3.349-3.366c1.887 0 3.349 1.48 3.349 3.366 0 1.887-1.462 3.366-3.349 3.366Z"/><rect width="89" height="45.133" x="321" fill="#FFB359" rx="22.567"/><path fill="#fff" d="M352.829 29.081c2.227 0 4.182-1.173 5.151-2.94l-1.054-.596c-.731 1.428-2.312 2.38-4.097 2.38-3.009 0-5.049-2.227-5.049-4.998 0-2.77 2.04-4.998 5.049-4.998 1.785 0 3.366.952 4.097 2.38l1.054-.612c-.986-1.768-2.941-2.924-5.151-2.924-3.655 0-6.239 2.754-6.239 6.154s2.584 6.154 6.239 6.154Zm10.782-8.908c-2.635 0-4.437 1.955-4.437 4.454 0 2.567 1.836 4.454 4.522 4.454 1.717 0 3.026-.799 3.74-1.955l-.986-.578c-.459.816-1.394 1.445-2.737 1.445-1.802 0-3.145-1.07-3.383-2.805h7.463c.017-.17.034-.357.034-.527 0-2.329-1.615-4.488-4.216-4.488Zm0 1.088c1.462 0 2.822.97 3.06 2.84h-6.341c.221-1.667 1.496-2.84 3.281-2.84Zm11.789-.884h-7.14v1.088h3.009v7.412h1.122v-7.412h3.009v-1.088Zm7.555 0-5.066 6.545v-6.545h-1.122v8.5h.952l5.066-6.545v6.545h1.122v-8.5h-.952Z"/><rect width="93.833" height="45.133" x="373" y="110" fill="#AF93FF" rx="22.567"/><path fill="#fff" d="M421.004 133.216h-5.95v1.122h4.726c-.221 1.989-1.819 3.587-4.59 3.587-3.009 0-5.049-2.227-5.049-4.998 0-2.771 2.04-4.998 5.049-4.998 1.785 0 3.366.952 4.097 2.38l1.054-.612c-.986-1.751-2.924-2.924-5.151-2.924-3.655 0-6.239 2.754-6.239 6.154s2.584 6.154 6.239 6.154 5.814-2.414 5.814-5.253v-.612Zm2.432-4.641a.816.816 0 1 0 0-1.632.816.816 0 0 0 0 1.632Zm-.561 10.302h1.122v-8.5h-1.122v8.5Zm8.008-7.412v-1.088h-2.448v-2.38l-1.122.34v2.04h-1.785v1.088h1.785v5.151c0 2.04 1.275 2.601 3.57 2.261v-.986c-1.649.068-2.448.187-2.448-1.275v-5.151h2.448Z"/></svg>