<svg xmlns="http://www.w3.org/2000/svg" width="267" height="267" fill="none"><rect width="267" height="45.133" fill="#5096FF" rx="22.567"/><path fill="#fff" d="M34.713 18.077h-3.92a2.94 2.94 0 0 0-2.94 2.94 2.959 2.959 0 0 0 2.45 2.898l-2.73 3.962h1.12l2.688-3.92h2.352v3.92h.98v-9.8Zm-3.92 4.956c-1.078 0-1.96-.91-1.96-2.016 0-1.12.882-2.016 1.96-2.016h2.94v4.032h-2.94Zm9.634 1.246c.588-.322.882-.896.882-1.568 0-1.064-.882-2.002-2.422-2.002-1.288 0-2.114.63-2.52 1.498l.77.448c.294-.714.938-1.05 1.75-1.05.938 0 1.498.518 1.498 1.162 0 .7-.476 1.134-1.288 1.134h-.742v.896h1.022c.826 0 1.344.462 1.344 1.106 0 .7-.574 1.246-1.694 1.246-1.148 0-1.736-.532-1.988-1.246l-.784.462c.35.896 1.162 1.68 2.772 1.68 1.764 0 2.618-1.008 2.618-2.086 0-.77-.434-1.386-1.218-1.68Zm5.464-.742h-1.918v-2.66h-.924v7h2.842c1.274 0 2.338-.882 2.338-2.17 0-1.288-1.064-2.17-2.338-2.17Zm3.318-2.66v7h.924v-7h-.924Zm-3.318 6.104h-1.918v-2.548h1.918c.756 0 1.414.476 1.414 1.274s-.658 1.274-1.414 1.274Zm11.865.896-3.752-3.64 3.612-3.36h-1.26l-3.332 3.094v-3.094H52.1v7h.924v-3.374l3.5 3.374h1.232Zm10.642-7h-5.88v7h.924v-6.104h4.032v6.104h.924v-7Zm5.706-.168c-1.246 0-2.24.602-2.828 1.54v-1.372h-.924v9.8h.924v-4.172c.588.938 1.582 1.54 2.828 1.54 1.974 0 3.612-1.596 3.612-3.668s-1.638-3.668-3.612-3.668Zm-.07 6.44c-1.554 0-2.758-1.218-2.758-2.772 0-1.554 1.204-2.772 2.758-2.772s2.758 1.218 2.758 2.772c0 1.554-1.204 2.772-2.758 2.772Zm8.48.896c2.044 0 3.682-1.596 3.682-3.668s-1.638-3.668-3.682-3.668-3.682 1.596-3.682 3.668 1.638 3.668 3.682 3.668Zm0-.896c-1.554 0-2.758-1.218-2.758-2.772 0-1.554 1.204-2.772 2.758-2.772s2.758 1.218 2.758 2.772c0 1.554-1.204 2.772-2.758 2.772Zm9.709-6.272h-4.48v7h.924v-6.104h3.556v-.896Zm4.877-.168c-1.246 0-2.24.602-2.828 1.54v-1.372h-.924v9.8h.924v-4.172c.588.938 1.582 1.54 2.828 1.54 1.974 0 3.612-1.596 3.612-3.668S99.074 20.71 97.1 20.71Zm-.07 6.44c-1.554 0-2.758-1.218-2.758-2.772 0-1.554 1.204-2.772 2.758-2.772s2.758 1.218 2.758 2.772c0 1.554-1.204 2.772-2.758 2.772Zm11.239-6.272v1.372c-.588-.938-1.582-1.54-2.828-1.54-1.974 0-3.612 1.596-3.612 3.668s1.638 3.668 3.612 3.668c1.246 0 2.24-.602 2.828-1.54v1.372h.924v-7h-.924Zm-2.758 6.272c-1.554 0-2.758-1.218-2.758-2.772 0-1.554 1.204-2.772 2.758-2.772s2.758 1.218 2.758 2.772c0 1.554-1.204 2.772-2.758 2.772Zm12.498-6.272h-1.064l-2.366 3.836-2.366-3.836h-1.064v7h.924v-5.586l2.45 3.976h.112l2.45-3.976v5.586h.924v-7Zm8.818 0h-1.064l-2.366 3.836-2.366-3.836h-1.064v7h.924v-5.586l2.45 3.976h.112l2.45-3.976v5.586h.924v-7Zm7.055 0-4.172 5.39v-5.39h-.924v7h.784l4.172-5.39v5.39h.924v-7h-.784Zm6.49-.168c-1.246 0-2.24.602-2.828 1.54v-1.372h-.924v9.8h.924v-4.172c.588.938 1.582 1.54 2.828 1.54 1.974 0 3.612-1.596 3.612-3.668s-1.638-3.668-3.612-3.668Zm-.07 6.44c-1.554 0-2.758-1.218-2.758-2.772 0-1.554 1.204-2.772 2.758-2.772s2.758 1.218 2.758 2.772c0 1.554-1.204 2.772-2.758 2.772Zm8.48.896c2.044 0 3.682-1.596 3.682-3.668s-1.638-3.668-3.682-3.668-3.682 1.596-3.682 3.668 1.638 3.668 3.682 3.668Zm0-.896c-1.554 0-2.758-1.218-2.758-2.772 0-1.554 1.204-2.772 2.758-2.772s2.758 1.218 2.758 2.772c0 1.554-1.204 2.772-2.758 2.772Zm9.68-2.87c.546-.322.812-.854.812-1.526 0-1.064-.742-1.876-2.142-1.876h-3.122v7h3.402c1.484 0 2.198-.882 2.198-1.96 0-.756-.392-1.358-1.148-1.638Zm-1.33-2.506c.798 0 1.218.392 1.218 1.036 0 .7-.406 1.092-1.218 1.092h-2.198v-2.128h2.198Zm.28 5.208h-2.478v-2.184h2.478c.826 0 1.274.42 1.274 1.064 0 .7-.434 1.12-1.274 1.12Zm9.618-6.104v1.372c-.588-.938-1.582-1.54-2.828-1.54-1.974 0-3.612 1.596-3.612 3.668s1.638 3.668 3.612 3.668c1.246 0 2.24-.602 2.828-1.54v1.372h.924v-7h-.924Zm-2.758 6.272c-1.554 0-2.758-1.218-2.758-2.772 0-1.554 1.204-2.772 2.758-2.772s2.758 1.218 2.758 2.772c0 1.554-1.204 2.772-2.758 2.772Zm10.595-6.272v3.052h-4.032v-3.052h-.924v7h.924v-3.052h4.032v3.052h.924v-7h-.924Zm7.974 0-4.172 5.39v-5.39h-.924v7h.784l4.172-5.39v5.39h.924v-7h-.784Zm7.778 0h-2.842c-1.274 0-2.338.882-2.338 2.17 0 1.148.84 1.946 1.932 2.114l-2.212 2.716h1.176l2.156-2.688h1.204v2.688h.924v-7Zm-2.842 3.444c-.756 0-1.414-.476-1.414-1.274s.658-1.274 1.414-1.274h1.918v2.548h-1.918Zm11.942-6.244h-3.5v9.8h.98v-3.64h2.52c1.764 0 3.08-1.33 3.08-3.08 0-1.764-1.316-3.08-3.08-3.08Zm0 5.236h-2.52v-4.312h2.52c1.218 0 2.1.896 2.1 2.156 0 1.246-.882 2.156-2.1 2.156Zm9.657-2.436-2.268 5.866-2.632-5.866h-.98l3.136 7.042-.182.434c-.378.91-1.008 1.554-1.918 1.456v.868c1.26.098 2.296-.812 2.828-2.156l2.996-7.644h-.98Zm5.807.896v-.896h-2.016v-1.96l-.924.28v1.68h-1.47v.896h1.47v4.242c0 1.68 1.05 2.142 2.94 1.862v-.812c-1.358.056-2.016.154-2.016-1.05v-4.242h2.016Zm4.816-1.064c-.994 0-1.806.378-2.352 1.26v-3.892h-.924v9.8h.924V24.21c0-1.876 1.036-2.604 2.268-2.604 1.218 0 1.904.728 1.904 1.974v4.298h.924V23.58c0-1.75-1.036-2.87-2.744-2.87Zm7.793 7.336c2.044 0 3.682-1.596 3.682-3.668s-1.638-3.668-3.682-3.668-3.682 1.596-3.682 3.668 1.638 3.668 3.682 3.668Zm0-.896c-1.554 0-2.758-1.218-2.758-2.772 0-1.554 1.204-2.772 2.758-2.772s2.758 1.218 2.758 2.772c0 1.554-1.204 2.772-2.758 2.772Zm8.504-6.44c-.994 0-1.806.378-2.352 1.26v-1.092h-.924v7h.924V24.21c0-1.876 1.036-2.604 2.268-2.604 1.218 0 1.904.728 1.904 1.974v4.298h.924V23.58c0-1.75-1.036-2.87-2.744-2.87Z"/><rect width="267" height="45" y="166" fill="#50C0FF" rx="22.5"/><path fill="#fff" d="M57.334 194.168c2.856 0 5.068-2.268 5.068-5.068s-2.212-5.068-5.068-5.068c-2.856 0-5.068 2.268-5.068 5.068s2.212 5.068 5.068 5.068Zm0-.952c-2.324 0-4.088-1.834-4.088-4.116 0-2.282 1.764-4.116 4.088-4.116s4.088 1.834 4.088 4.116c0 2.282-1.764 4.116-4.088 4.116ZM68.978 187h-5.88v.896h2.478V194h.924v-6.104h2.478V187Zm6.442 0h-5.012v4.018c0 1.778-.574 2.212-1.568 2.114V194c1.4.098 2.492-.49 2.492-2.982v-3.122h3.164V194h.924v-7Zm7.977 0v1.372c-.588-.938-1.582-1.54-2.828-1.54-1.974 0-3.612 1.596-3.612 3.668s1.638 3.668 3.612 3.668c1.246 0 2.24-.602 2.828-1.54V194h.924v-7h-.924Zm-2.758 6.272c-1.554 0-2.758-1.218-2.758-2.772 0-1.554 1.204-2.772 2.758-2.772s2.758 1.218 2.758 2.772c0 1.554-1.204 2.772-2.758 2.772Zm11.519-.168V187h-5.012v3.458c0 1.372-.266 2.058-.714 2.646h-.854v2.772h.924V194h5.712v1.876h.924v-2.772h-.98Zm-4.606 0c.336-.672.518-1.498.518-2.646v-2.562h3.164v5.208h-3.682Zm12.639.896-3.752-3.64 3.612-3.36h-1.26l-3.332 3.094V187h-.924v7h.924v-3.374l3.5 3.374h1.232Zm6.585-7v1.372c-.588-.938-1.582-1.54-2.828-1.54-1.974 0-3.612 1.596-3.612 3.668s1.638 3.668 3.612 3.668c1.246 0 2.24-.602 2.828-1.54V194h.924v-7h-.924Zm-2.758 6.272c-1.554 0-2.758-1.218-2.758-2.772 0-1.554 1.204-2.772 2.758-2.772s2.758 1.218 2.758 2.772c0 1.554-1.204 2.772-2.758 2.772ZM118.252 187l-4.172 5.39V187h-.924v7h.784l4.172-5.39V194h.924v-7h-.784Zm11.278 0h-5.88v.896h2.478V194h.924v-6.104h2.478V187Zm4.087-.168c-2.17 0-3.654 1.61-3.654 3.668 0 2.114 1.512 3.668 3.724 3.668 1.414 0 2.492-.658 3.08-1.61l-.812-.476c-.378.672-1.148 1.19-2.254 1.19-1.484 0-2.59-.882-2.786-2.31h6.146c.014-.14.028-.294.028-.434 0-1.918-1.33-3.696-3.472-3.696Zm0 .896c1.204 0 2.324.798 2.52 2.338h-5.222c.182-1.372 1.232-2.338 2.702-2.338Zm8.204 6.44c1.372 0 2.562-.714 3.136-1.82l-.77-.448c-.448.812-1.302 1.372-2.366 1.372-1.554 0-2.758-1.218-2.758-2.772 0-1.554 1.204-2.772 2.758-2.772 1.05 0 1.932.546 2.31 1.372l.756-.434c-.504-1.106-1.68-1.834-3.066-1.834-2.114 0-3.682 1.596-3.682 3.668s1.568 3.668 3.682 3.668Zm9.366-7.168h-5.88v.896h2.478V194h.924v-6.104h2.478V187Zm6.222 0-4.172 5.39V187h-.924v7h.784l4.172-5.39V194h.924v-7h-.784Zm6.49-.168c-1.246 0-2.24.602-2.828 1.54V187h-.924v9.8h.924v-4.172c.588.938 1.582 1.54 2.828 1.54 1.974 0 3.612-1.596 3.612-3.668s-1.638-3.668-3.612-3.668Zm-.07 6.44c-1.554 0-2.758-1.218-2.758-2.772 0-1.554 1.204-2.772 2.758-2.772s2.758 1.218 2.758 2.772c0 1.554-1.204 2.772-2.758 2.772Zm8.48.896c2.044 0 3.682-1.596 3.682-3.668s-1.638-3.668-3.682-3.668-3.682 1.596-3.682 3.668 1.638 3.668 3.682 3.668Zm0-.896c-1.554 0-2.758-1.218-2.758-2.772 0-1.554 1.204-2.772 2.758-2.772s2.758 1.218 2.758 2.772c0 1.554-1.204 2.772-2.758 2.772Zm9.68-2.87c.546-.322.812-.854.812-1.526 0-1.064-.742-1.876-2.142-1.876h-3.122v7h3.402c1.484 0 2.198-.882 2.198-1.96 0-.756-.392-1.358-1.148-1.638Zm-1.33-2.506c.798 0 1.218.392 1.218 1.036 0 .7-.406 1.092-1.218 1.092h-2.198v-2.128h2.198Zm.28 5.208h-2.478v-2.184h2.478c.826 0 1.274.42 1.274 1.064 0 .7-.434 1.12-1.274 1.12Zm9.618-6.104v1.372c-.588-.938-1.582-1.54-2.828-1.54-1.974 0-3.612 1.596-3.612 3.668s1.638 3.668 3.612 3.668c1.246 0 2.24-.602 2.828-1.54V194h.924v-7h-.924Zm-2.758 6.272c-1.554 0-2.758-1.218-2.758-2.772 0-1.554 1.204-2.772 2.758-2.772s2.758 1.218 2.758 2.772c0 1.554-1.204 2.772-2.758 2.772ZM198.394 187v3.052h-4.032V187h-.924v7h.924v-3.052h4.032V194h.924v-7h-.924Zm7.974 0-4.172 5.39V187h-.924v7h.784l4.172-5.39V194h.924v-7h-.784Zm5.972-.168c-2.17 0-3.654 1.61-3.654 3.668 0 2.114 1.512 3.668 3.724 3.668 1.414 0 2.492-.658 3.08-1.61l-.812-.476c-.378.672-1.148 1.19-2.254 1.19-1.484 0-2.59-.882-2.786-2.31h6.146c.014-.14.028-.294.028-.434 0-1.918-1.33-3.696-3.472-3.696Zm0 .896c1.204 0 2.324.798 2.52 2.338h-5.222c.182-1.372 1.232-2.338 2.702-2.338Z"/><rect width="160" height="45.133" x="107" y="54.133" fill="#FF6F50" rx="22.567"/><path fill="#fff" d="M149.452 76.13h-2.66v-2.996h4.76v-.924h-5.74v9.8h3.64a2.94 2.94 0 0 0 2.94-2.94c0-1.61-1.316-2.94-2.94-2.94Zm0 4.956h-2.66v-4.032h2.66c1.078 0 1.96.91 1.96 2.016 0 1.12-.882 2.016-1.96 2.016Zm10.43-6.076v1.372c-.588-.938-1.582-1.54-2.828-1.54-1.974 0-3.612 1.596-3.612 3.668s1.638 3.668 3.612 3.668c1.246 0 2.24-.602 2.828-1.54v1.372h.924v-7h-.924Zm-2.758 6.272c-1.554 0-2.758-1.218-2.758-2.772 0-1.554 1.204-2.772 2.758-2.772s2.758 1.218 2.758 2.772c0 1.554-1.204 2.772-2.758 2.772Zm9.25-2.87c.588-.322.882-.896.882-1.568 0-1.064-.882-2.002-2.422-2.002-1.288 0-2.114.63-2.52 1.498l.77.448c.294-.714.938-1.05 1.75-1.05.938 0 1.498.518 1.498 1.162 0 .7-.476 1.134-1.288 1.134h-.742v.896h1.022c.826 0 1.344.462 1.344 1.106 0 .7-.574 1.246-1.694 1.246-1.148 0-1.736-.532-1.988-1.246l-.784.462c.35.896 1.162 1.68 2.772 1.68 1.764 0 2.618-1.008 2.618-2.086 0-.77-.434-1.386-1.218-1.68Zm5.465-.742h-1.918v-2.66h-.924v7h2.842c1.274 0 2.338-.882 2.338-2.17 0-1.288-1.064-2.17-2.338-2.17Zm3.318-2.66v7h.924v-7h-.924Zm-3.318 6.104h-1.918v-2.548h1.918c.756 0 1.414.476 1.414 1.274s-.658 1.274-1.414 1.274Zm15.588 0V75.01h-5.012v3.458c0 1.372-.266 2.058-.714 2.646h-.854v2.772h.924V82.01h5.712v1.876h.924v-2.772h-.98Zm-4.606 0c.336-.672.518-1.498.518-2.646v-2.562h3.164v5.208h-3.682Zm12.731-6.104v1.372c-.588-.938-1.582-1.54-2.828-1.54-1.974 0-3.612 1.596-3.612 3.668s1.638 3.668 3.612 3.668c1.246 0 2.24-.602 2.828-1.54v1.372h.924v-7h-.924Zm-2.758 6.272c-1.554 0-2.758-1.218-2.758-2.772 0-1.554 1.204-2.772 2.758-2.772s2.758 1.218 2.758 2.772c0 1.554-1.204 2.772-2.758 2.772Zm10.594-6.272v3.052h-4.032V75.01h-.924v7h.924v-3.052h4.032v3.052h.924v-7h-.924Zm7.834 0v3.052h-4.032V75.01h-.924v7h.924v-3.052h4.032v3.052h.924v-7h-.924Zm5.72 2.66h-1.918v-2.66h-.924v7h2.842c1.274 0 2.338-.882 2.338-2.17 0-1.288-1.064-2.17-2.338-2.17Zm3.318-2.66v7h.924v-7h-.924Zm-3.318 6.104h-1.918v-2.548h1.918c.756 0 1.414.476 1.414 1.274s-.658 1.274-1.414 1.274Zm12.089.896-2.73-3.626 2.548-3.374h-1.106l-2.002 2.646-2.002-2.646h-1.106l2.562 3.374-2.744 3.626h1.106l2.184-2.884 2.184 2.884h1.106Z"/><rect width="129" height="45.133" y="221" fill="#4B77B9" rx="22.567"/><path fill="#fff" d="M46.855 239.077h-3.78v9.8h3.78c2.702 0 4.62-2.198 4.62-4.9 0-2.702-1.918-4.9-4.62-4.9Zm0 8.876h-2.8v-7.952h2.8c2.184 0 3.668 1.778 3.668 3.976s-1.484 3.976-3.668 3.976Zm9.418 1.092c2.044 0 3.682-1.596 3.682-3.668s-1.638-3.668-3.682-3.668-3.682 1.596-3.682 3.668 1.638 3.668 3.682 3.668Zm0-.896c-1.554 0-2.758-1.218-2.758-2.772 0-1.554 1.204-2.772 2.758-2.772s2.758 1.218 2.758 2.772c0 1.554-1.204 2.772-2.758 2.772Zm8.49.896c1.372 0 2.563-.714 3.136-1.82l-.77-.448c-.448.812-1.302 1.372-2.366 1.372-1.554 0-2.758-1.218-2.758-2.772 0-1.554 1.204-2.772 2.758-2.772 1.05 0 1.932.546 2.31 1.372l.757-.434c-.504-1.106-1.68-1.834-3.067-1.834-2.114 0-3.682 1.596-3.682 3.668s1.569 3.668 3.682 3.668Zm10.12-.168-3.753-3.64 3.612-3.36h-1.26l-3.332 3.094v-5.894h-.924v9.8h.924v-3.374l3.5 3.374h1.232Zm3.798-7.168c-2.17 0-3.654 1.61-3.654 3.668 0 2.114 1.512 3.668 3.724 3.668 1.414 0 2.492-.658 3.08-1.61l-.812-.476c-.378.672-1.148 1.19-2.254 1.19-1.484 0-2.59-.882-2.786-2.31h6.146c.014-.14.028-.294.028-.434 0-1.918-1.33-3.696-3.472-3.696Zm0 .896c1.204 0 2.324.798 2.52 2.338h-5.222c.182-1.372 1.232-2.338 2.702-2.338Zm5.866.434v-1.162h-.924v7h.924v-3.892c0-1.736 1.092-2.324 2.212-2.324v-.896c-.896 0-1.722.294-2.212 1.274Z"/><rect width="267" height="45.133" y="110" fill="#4BD071" rx="22.567"/><path fill="#fff" d="M53.377 132.977c0-2.38-1.974-3.668-4.718-3.794v-1.106h-.98v1.106c-2.744.126-4.718 1.414-4.718 3.794s1.974 3.668 4.718 3.794v1.106h.98v-1.106c2.745-.126 4.718-1.414 4.718-3.794Zm-9.436 0c0-1.862 1.54-2.786 3.738-2.898v5.796c-2.198-.112-3.738-1.036-3.738-2.898Zm4.718 2.898v-5.796c2.199.112 3.739 1.036 3.739 2.898s-1.54 2.786-3.739 2.898Zm9.866-5.166c-1.246 0-2.24.602-2.828 1.54v-1.372h-.924v9.8h.924v-4.172c.588.938 1.582 1.54 2.828 1.54 1.974 0 3.612-1.596 3.612-3.668s-1.638-3.668-3.612-3.668Zm-.07 6.44c-1.554 0-2.758-1.218-2.758-2.772 0-1.554 1.204-2.772 2.758-2.772s2.758 1.218 2.758 2.772c0 1.554-1.204 2.772-2.758 2.772Zm8.453-6.44c-2.17 0-3.654 1.61-3.654 3.668 0 2.114 1.512 3.668 3.724 3.668 1.414 0 2.492-.658 3.08-1.61l-.812-.476c-.378.672-1.148 1.19-2.254 1.19-1.484 0-2.59-.882-2.786-2.31h6.146c.014-.14.028-.294.028-.434 0-1.918-1.33-3.696-3.472-3.696Zm0 .896c1.204 0 2.324.798 2.52 2.338h-5.222c.182-1.372 1.232-2.338 2.702-2.338Zm6.062-1.848h3.64v-.812h-3.64v.812Zm3.976 1.12-4.172 5.39v-5.39h-.924v7h.784l4.172-5.39v5.39h.924v-7h-.784Zm9.598 0H85.48l-2.366 3.836-2.366-3.836h-1.064v7h.924v-5.586l2.45 3.976h.112l2.45-3.976v5.586h.924v-7Zm6.41 3.402c.546-.322.812-.854.812-1.526 0-1.064-.742-1.876-2.142-1.876h-3.122v7h3.402c1.484 0 2.198-.882 2.198-1.96 0-.756-.392-1.358-1.148-1.638Zm-1.33-2.506c.798 0 1.218.392 1.218 1.036 0 .7-.406 1.092-1.218 1.092h-2.198v-2.128h2.198Zm.28 5.208h-2.478v-2.184h2.478c.826 0 1.274.42 1.274 1.064 0 .7-.434 1.12-1.274 1.12Zm6.86 1.064c2.044 0 3.682-1.596 3.682-3.668s-1.638-3.668-3.682-3.668-3.682 1.596-3.682 3.668 1.638 3.668 3.682 3.668Zm0-.896c-1.554 0-2.758-1.218-2.758-2.772 0-1.554 1.204-2.772 2.758-2.772s2.758 1.218 2.758 2.772c0 1.554-1.204 2.772-2.758 2.772Zm8.98-6.44c-1.246 0-2.24.602-2.828 1.54v-1.372h-.924v9.8h.924v-4.172c.588.938 1.582 1.54 2.828 1.54 1.974 0 3.612-1.596 3.612-3.668s-1.638-3.668-3.612-3.668Zm-.07 6.44c-1.554 0-2.758-1.218-2.758-2.772 0-1.554 1.204-2.772 2.758-2.772s2.758 1.218 2.758 2.772c0 1.554-1.204 2.772-2.758 2.772Zm10.875.728-3.752-3.64 3.612-3.36h-1.26l-3.332 3.094v-3.094h-.924v7h.924v-3.374l3.5 3.374h1.232Zm6.358-7-4.172 5.39v-5.39h-.924v7h.784l4.172-5.39v5.39h.924v-7h-.784Zm11.908-1.876v-.924h-5.53v9.8h.98v-4.34h4.34v-.924h-4.34v-3.612h4.55Zm1.535 8.876h.924v-10.22h-.924v10.22Zm8.904-7v1.372c-.588-.938-1.582-1.54-2.828-1.54-1.974 0-3.612 1.596-3.612 3.668s1.638 3.668 3.612 3.668c1.246 0 2.24-.602 2.828-1.54v1.372h.924v-7h-.924Zm-2.758 6.272c-1.554 0-2.758-1.218-2.758-2.772 0-1.554 1.204-2.772 2.758-2.772s2.758 1.218 2.758 2.772c0 1.554-1.204 2.772-2.758 2.772Zm6.367-4.438c0-.756.742-1.106 1.47-1.106.672 0 1.386.266 1.68.98l.77-.448c-.406-.868-1.302-1.428-2.45-1.428-1.4 0-2.394.882-2.394 2.002 0 2.576 4.088 1.582 4.088 3.318 0 .826-.784 1.12-1.61 1.12-.938 0-1.666-.462-1.918-1.176l-.784.462c.35.896 1.302 1.61 2.702 1.61 1.498 0 2.534-.826 2.534-2.016 0-2.576-4.088-1.582-4.088-3.318Zm11.217 5.166-3.752-3.64 3.612-3.36h-1.26l-3.332 3.094v-5.894h-.924v9.8h.924v-3.374l3.5 3.374h1.232Zm9.858-7-4.172 5.39v-5.39h-.924v7h.784l4.172-5.39v5.39h.924v-7h-.784Zm10.158-2.8h-3.78v9.8h3.78c2.702 0 4.62-2.198 4.62-4.9 0-2.702-1.918-4.9-4.62-4.9Zm0 8.876h-2.8v-7.952h2.8c2.184 0 3.668 1.778 3.668 3.976s-1.484 3.976-3.668 3.976Zm6.817-8.904a.672.672 0 1 0 0 1.344.672.672 0 0 0 0-1.344Zm-.462 10.388c0 1.204-.518 1.624-1.596 1.512v.896c1.61.14 2.52-.728 2.52-2.408v-7.56h-.924v7.56Zm8.911-7.56v1.372c-.588-.938-1.582-1.54-2.828-1.54-1.974 0-3.612 1.596-3.612 3.668s1.638 3.668 3.612 3.668c1.246 0 2.24-.602 2.828-1.54v1.372h.924v-7h-.924Zm-2.758 6.272c-1.554 0-2.758-1.218-2.758-2.772 0-1.554 1.204-2.772 2.758-2.772s2.758 1.218 2.758 2.772c0 1.554-1.204 2.772-2.758 2.772Zm8.914-6.44c-.994 0-1.806.378-2.352 1.26v-1.092h-.924v7h.924v-3.668c0-1.876 1.036-2.604 2.268-2.604 1.218 0 1.904.728 1.904 1.974v4.298h.924v-4.298c0-1.75-1.036-2.87-2.744-2.87Zm10.551.168v1.372c-.588-.938-1.582-1.54-2.828-1.54-1.974 0-3.612 1.596-3.612 3.668s1.638 3.668 3.612 3.668c1.246 0 2.24-.602 2.828-1.54v1.092c0 1.428-.966 2.352-2.59 2.352-1.512 0-2.156-.56-2.506-1.274l-.812.462c.546 1.092 1.708 1.708 3.318 1.708 1.806 0 3.514-1.12 3.514-3.248v-6.72h-.924Zm-2.758 6.272c-1.554 0-2.758-1.218-2.758-2.772 0-1.554 1.204-2.772 2.758-2.772s2.758 1.218 2.758 2.772c0 1.554-1.204 2.772-2.758 2.772Zm8.9.896c2.044 0 3.682-1.596 3.682-3.668s-1.638-3.668-3.682-3.668-3.682 1.596-3.682 3.668 1.638 3.668 3.682 3.668Zm0-.896c-1.554 0-2.758-1.218-2.758-2.772 0-1.554 1.204-2.772 2.758-2.772s2.758 1.218 2.758 2.772c0 1.554-1.204 2.772-2.758 2.772Z"/><rect width="99" height="45.133" y="54" fill="#FFB359" rx="22.567"/><path fill="#fff" d="M39.065 82.045c1.834 0 3.444-.966 4.242-2.422l-.868-.49c-.602 1.176-1.904 1.96-3.374 1.96-2.478 0-4.158-1.834-4.158-4.116 0-2.282 1.68-4.116 4.158-4.116 1.47 0 2.772.784 3.374 1.96l.868-.504c-.812-1.456-2.422-2.408-4.242-2.408-3.01 0-5.138 2.268-5.138 5.068s2.128 5.068 5.138 5.068Zm8.88-7.336c-2.17 0-3.655 1.61-3.655 3.668 0 2.114 1.512 3.668 3.724 3.668 1.414 0 2.492-.658 3.08-1.61l-.812-.476c-.378.672-1.148 1.19-2.254 1.19-1.484 0-2.59-.882-2.786-2.31h6.146c.014-.14.028-.294.028-.434 0-1.918-1.33-3.696-3.472-3.696Zm0 .896c1.203 0 2.323.798 2.52 2.338h-5.223c.182-1.372 1.232-2.338 2.702-2.338Zm9.708-.728h-5.88v.896h2.478v6.104h.924v-6.104h2.478v-.896Zm6.222 0-4.172 5.39v-5.39h-.924v7h.784l4.172-5.39v5.39h.924v-7h-.784Z"/><rect width="129" height="45.133" x="138" y="220" fill="#AF93FF" rx="22.567"/><path fill="#fff" d="M203.395 243.215h-4.9v.924h3.892c-.182 1.638-1.498 2.954-3.78 2.954-2.478 0-4.158-1.834-4.158-4.116 0-2.282 1.68-4.116 4.158-4.116 1.47 0 2.772.784 3.374 1.96l.868-.504c-.812-1.442-2.408-2.408-4.242-2.408-3.01 0-5.138 2.268-5.138 5.068s2.128 5.068 5.138 5.068 4.788-1.988 4.788-4.326v-.504Zm2.003-3.822a.672.672 0 1 0 0-1.344.672.672 0 0 0 0 1.344Zm-.462 8.484h.924v-7h-.924v7Zm6.595-6.104v-.896h-2.016v-1.96l-.924.28v1.68h-1.47v.896h1.47v4.242c0 1.68 1.05 2.142 2.94 1.862v-.812c-1.358.056-2.016.154-2.016-1.05v-4.242h2.016Z"/></svg>